<svg xmlns="http://www.w3.org/2000/svg" xmlns:xlink="http://www.w3.org/1999/xlink"><symbol xmlns="http://www.w3.org/2000/svg" id="guide" viewBox="0 0 28 28"><g clip-path="url(#clip0_26292_5506)" fill-rule="evenodd" clip-rule="evenodd"><path d="M.79 5.362c-.05-.424-.293-.6-.443-.999-.097-.256-.222-.666-.222-.666S-.05 4.85.014 5.584c.041.483.222 1.22.222 1.22l.443-.554s.153-.541.111-.888Zm2.996 3.551-.333.555s.842.176 1.332 0c.549-.197.91-.999.91-.999s.586-1.663.665-2.774c.074-1.041.003-1.644-.221-2.663-.177-.803-.35-1.664-1.066-2.397-.107-.11-.164-.177-.288-.267C4.15-.087 2.788.48 2.788.48L4.23 2.366l.888-.222.555.999-1.221.222s.27 1.485.222 2.44C4.62 6.868 4.119 8.47 4.119 8.47l-.222-.555s.19-1.01.222-1.664c.052-1.043-.222-2.664-.222-2.664l-.444-1.331L2.677.812l-.355.089c-.538.074-.866 1.02-.866 1.02s.647-.062.999.112c.643.318.596.97.776 1.664.197.757.137 1.217.111 1.998-.024.741.194 1.272-.221 1.886-.172.254-.555.555-.555.555s.237-.599.333-.998c.201-.845.11-2.22.11-2.22L2.9 4.03l-.333.222.11-.555.112-.332-.333-.555-.333-.444h-.777s.557.556.777.999c.239.48.267.8.333 1.331.096.776-.111 1.998-.111 1.998l-.222.776-.222-.887s.175-1.171 0-1.887c-.088-.36-.333-.888-.333-.888s-.018-.29-.11-.443C1.265 3.048.57 3.032.57 3.032l-.222.333s.398.438.554.776c.221.479.253.806.222 1.332-.028.493-.333 1.22-.333 1.22l-.332.334s.425-.09.665-.222a3.14 3.14 0 0 0 .444-.333l-.11.666-.667.221s-.032.591.222.777c.245.18.777 0 .777 0l.444.777.666.444.887-.444Zm16.755-6.991s.54 1.068.643 1.775c.15 1.03.15 1.635 0 2.664-.103.707-.643 1.775-.643 1.775s.541.023.887 0c.526-.034 1.332-.222 1.332-.222l.555-.776s.63-.155.887-.444c.22-.247.333-.777.333-.777s.07-.27.244-.444c.4-.4.377-1.287.31-2.108-.041-.526-.221-1.332-.221-1.332h-.444s.222 2.23 0 2.663c-.222.433-.094-.945-.11-1.553-.034-1.21-.666-2.33-.666-2.33h-.555s.418.923.555 1.553c.165.763.166 1.218.11 1.997-.05.704-.332 1.554-.443 1.665-.111.111.342-1.805.11-2.996-.156-.808-.665-1.998-.665-1.998l-.444-.888s-.336-.08-.555-.11c-.557-.08-1.442 0-1.442 0s.694.387.998.776c.423.54.866 2.686.866 2.686s.344 1.935-.2 2.863a3.395 3.395 0 0 1-.555.666s.252-.734.333-1.221c.163-.984-.11-2.552-.11-2.552s-.077-.989-.334-1.554C20.97.934 19.897.08 19.897.08l-.577.532s.356.377.555.533c.314.247.666.777.666.777ZM7.337 19.012l-1.664.11s.436.307.665.555c.634.686.651 1.317.888 2.22.112.427.158.672.222 1.11.094.644.108 1.012.11 1.664.004.695.075 1.106-.11 1.775-.14.505-.555 1.221-.555 1.221l-.11-.444s.43-1.404.443-2.33c.013-.877-.102-1.374-.333-2.22a14.917 14.917 0 0 0-.333-.998s-.267-.847-.555-1.332c-.22-.373-.297-.66-.665-.888-.233-.144-.666-.222-.666-.222l-.333.666-.222.666s.75-.24 1.11 0c.29.194.284.466.444.777.318.623.518.98.665 1.664.12.553.103.878.111 1.443.01.695.283 1.203-.11 1.775-.14.202-.445.444-.445.444l-.11-.665s.348-1.207.332-1.998c-.01-.57-.025-.907-.222-1.443a3.205 3.205 0 0 0-.554-.998c-.226-.29-.666-.666-.666-.666h-.666l.666.555s.406.648.555 1.11c.253.784.11 2.108.11 2.108l-.11 1.11s-.114-.816-.222-1.332c-.139-.658-.189-1.042-.444-1.665a10.426 10.426 0 0 0-.444-.887H3.01s.297.248.444.444c.305.405.37.718.444 1.22.083.56.15.942-.11 1.443-.129.246-.445.555-.445.555l.888-.222-.444.555.222.554s.227.33.444.444c.233.124.666.111.666.111s.103.291.222.444c.191.247.373.334.665.444.247.093.666.111.666.111l1.687-.333s.308-.594.443-.999c.415-1.233.111-3.329.111-3.329s-.241-1.613-.665-2.552c-.337-.745-.91-1.776-.91-1.776Zm15.907 1.98-1.039-.094-11.761 1.553-.555-1.11 4.771-.776 4.993-.777.555-.333-3.55.111-4.883.333-1.997.111-.666-.333 4.55-.555 4.105-.333 3.994-.11h.395c-.28-.24-.506-.333-.506-.333l-.333-.111s-1.775-1.004-1.775-5.105c0-4.102 1.22-5.495 1.22-8.434 0-.16-.008-.31-.017-.457l-2.313-.098-10.873.111-.444-1.331-.666-1.11 5.88-.111-5.214.222.888.666h3.661l5.548-.333 2.22.555-.112-.777s-5.286-.4-5.437-.444c-.15-.044 5.77 0 5.77 0l.737 1.034c-.52-1.278-1.403-1.7-1.403-1.7l-12.982.111s.999 1.691.999 4.439-2.663 5.748-2.663 8.434c0 2.685.999 4.882.999 4.882l1.997-.443.866 1.11s.86 1.295 1.242 3.217c.382 1.922-.11 3.884-.11 3.884l12.981-1.886s.47-.595.777-1.22c.248-.511.324-1.381.15-2.46Zm4.398-2.092-.444-.221.222 1.11-.11 2.108s-.038-.95-.112-1.554c-.064-.523-.051-.833-.222-1.332-.176-.513-.145-1.067-.665-1.22-.208-.061-.555 0-.555 0l.11.333s.383 1.001.555 1.664c.178.683.335 1.07.333 1.776-.002.988-.666 2.441-.666 2.441s.292-1.003.333-1.665c.06-.96-.117-1.503-.332-2.44-.193-.842-.095-1.462-.666-2.11-.287-.324-.485-.505-.888-.665-.564-.224-2.052-.21-1.553 0 .499.21 1.22 1.553 1.22 1.553s.388.932.555 1.554c.216.805.312 1.275.333 2.108.015.609.119.99-.111 1.554-.21.514-.888 1.11-.888 1.11s.408-.507.555-.888c.281-.728.084-1.222 0-1.997-.086-.795-.19-1.24-.444-1.998-.178-.534-.077-.602-.321-1.11-.235-.489-.51-1.224-.9-1.442-.267-.15-.496-.235-.776-.111-.286.126-.444.666-.444.666l.555.11s.515.29.777.555c.673.683.663 1.378.776 2.33.067.56.074.885 0 1.443-.082.626-.178.981-.443 1.554a8.186 8.186 0 0 1-.444.777s.363.366.666.444c.338.087.443 0 .443 0s1.38-.084 1.776-.444c.258-.235.444-.777.444-.777s.772-.17.998-.555c.177-.3.111-.888.111-.888s.299-.171.444-.332c.145-.162.16-1.083.11-1.776-.046-.661-.332-1.665-.332-1.665ZM3.01 23.45l-.333-1.11s-.2.669-.222 1.11c-.036.705-.166 1.875.532 1.776.456-.065.56-.428.577-.888.015-.409-.554-.888-.554-.888Z"/><path d="M.79 5.362c-.05-.424-.293-.6-.443-.999-.097-.256-.222-.666-.222-.666S-.05 4.85.014 5.584c.041.483.222 1.22.222 1.22l.443-.554s.153-.541.111-.888Zm2.996 3.551-.333.555s.842.176 1.332 0c.549-.197.91-.999.91-.999s.586-1.663.665-2.774c.074-1.041.003-1.644-.221-2.663-.177-.803-.35-1.664-1.066-2.397-.107-.11-.164-.177-.288-.267C4.15-.087 2.788.48 2.788.48L4.23 2.366l.888-.222.555.999-1.221.222s.27 1.485.222 2.44C4.62 6.868 4.119 8.47 4.119 8.47l-.222-.555s.19-1.01.222-1.664c.052-1.043-.222-2.664-.222-2.664l-.444-1.331L2.677.812l-.355.089c-.538.074-.866 1.02-.866 1.02s.647-.062.999.112c.643.318.596.97.776 1.664.197.757.137 1.217.111 1.998-.024.741.194 1.272-.221 1.886-.172.254-.555.555-.555.555s.237-.599.333-.998c.201-.845.11-2.22.11-2.22L2.9 4.03l-.333.222.11-.555.112-.332-.333-.555-.333-.444h-.777s.557.556.777.999c.239.48.267.8.333 1.331.096.776-.111 1.998-.111 1.998l-.222.776-.222-.887s.175-1.171 0-1.887c-.088-.36-.333-.888-.333-.888s-.018-.29-.11-.443C1.265 3.048.57 3.032.57 3.032l-.222.333s.398.438.554.776c.221.479.253.806.222 1.332-.028.493-.333 1.22-.333 1.22l-.332.334s.425-.09.665-.222a3.14 3.14 0 0 0 .444-.333l-.11.666-.667.221s-.032.591.222.777c.245.18.777 0 .777 0l.444.777.666.444.887-.444Zm16.755-6.991s.54 1.068.643 1.775c.15 1.03.15 1.635 0 2.664-.103.707-.643 1.775-.643 1.775s.541.023.887 0c.526-.034 1.332-.222 1.332-.222l.555-.776s.63-.155.887-.444c.22-.247.333-.777.333-.777s.07-.27.244-.444c.4-.4.377-1.287.31-2.108-.041-.526-.221-1.332-.221-1.332h-.444s.222 2.23 0 2.663c-.222.433-.094-.945-.11-1.553-.034-1.21-.666-2.33-.666-2.33h-.555s.418.923.555 1.553c.165.763.166 1.218.11 1.997-.05.704-.332 1.554-.443 1.665-.111.111.342-1.805.11-2.996-.156-.808-.665-1.998-.665-1.998l-.444-.888s-.336-.08-.555-.11c-.557-.08-1.442 0-1.442 0s.694.387.998.776c.423.54.866 2.686.866 2.686s.344 1.935-.2 2.863a3.395 3.395 0 0 1-.555.666s.252-.734.333-1.221c.163-.984-.11-2.552-.11-2.552s-.077-.989-.334-1.554C20.97.934 19.897.08 19.897.08l-.577.532s.356.377.555.533c.314.247.666.777.666.777ZM7.337 19.012l-1.664.11s.436.307.665.555c.634.686.651 1.317.888 2.22.112.427.158.672.222 1.11.094.644.108 1.012.11 1.664.004.695.075 1.106-.11 1.775-.14.505-.555 1.221-.555 1.221l-.11-.444s.43-1.404.443-2.33c.013-.877-.102-1.374-.333-2.22a14.917 14.917 0 0 0-.333-.998s-.267-.847-.555-1.332c-.22-.373-.297-.66-.665-.888-.233-.144-.666-.222-.666-.222l-.333.666-.222.666s.75-.24 1.11 0c.29.194.284.466.444.777.318.623.518.98.665 1.664.12.553.103.878.111 1.443.01.695.283 1.203-.11 1.775-.14.202-.445.444-.445.444l-.11-.665s.348-1.207.332-1.998c-.01-.57-.025-.907-.222-1.443a3.205 3.205 0 0 0-.554-.998c-.226-.29-.666-.666-.666-.666h-.666l.666.555s.406.648.555 1.11c.253.784.11 2.108.11 2.108l-.11 1.11s-.114-.816-.222-1.332c-.139-.658-.189-1.042-.444-1.665a10.426 10.426 0 0 0-.444-.887H3.01s.297.248.444.444c.305.405.37.718.444 1.22.083.56.15.942-.11 1.443-.129.246-.445.555-.445.555l.888-.222-.444.555.222.554s.227.33.444.444c.233.124.666.111.666.111s.103.291.222.444c.191.247.373.334.665.444.247.093.666.111.666.111l1.687-.333s.308-.594.443-.999c.415-1.233.111-3.329.111-3.329s-.241-1.613-.665-2.552c-.337-.745-.91-1.776-.91-1.776Zm15.907 1.98-1.039-.094-11.761 1.553-.555-1.11 4.771-.776 4.993-.777.555-.333-3.55.111-4.883.333-1.997.111-.666-.333 4.55-.555 4.105-.333 3.994-.11h.395c-.28-.24-.506-.333-.506-.333l-.333-.111s-1.775-1.004-1.775-5.105c0-4.102 1.22-5.495 1.22-8.434 0-.16-.008-.31-.017-.457l-2.313-.098-10.873.111-.444-1.331-.666-1.11 5.88-.111-5.214.222.888.666h3.661l5.548-.333 2.22.555-.112-.777s-5.286-.4-5.437-.444c-.15-.044 5.77 0 5.77 0l.737 1.034c-.52-1.278-1.403-1.7-1.403-1.7l-12.982.111s.999 1.691.999 4.439-2.663 5.748-2.663 8.434c0 2.685.999 4.882.999 4.882l1.997-.443.866 1.11s.86 1.295 1.242 3.217c.382 1.922-.11 3.884-.11 3.884l12.981-1.886s.47-.595.777-1.22c.248-.511.324-1.381.15-2.46Zm4.398-2.092-.444-.221.222 1.11-.11 2.108s-.038-.95-.112-1.554c-.064-.523-.051-.833-.222-1.332-.176-.513-.145-1.067-.665-1.22-.208-.061-.555 0-.555 0l.11.333s.383 1.001.555 1.664c.178.683.335 1.07.333 1.776-.002.988-.666 2.441-.666 2.441s.292-1.003.333-1.665c.06-.96-.117-1.503-.332-2.44-.193-.842-.095-1.462-.666-2.11-.287-.324-.485-.505-.888-.665-.564-.224-2.052-.21-1.553 0 .499.21 1.22 1.553 1.22 1.553s.388.932.555 1.554c.216.805.312 1.275.333 2.108.015.609.119.99-.111 1.554-.21.514-.888 1.11-.888 1.11s.408-.507.555-.888c.281-.728.084-1.222 0-1.997-.086-.795-.19-1.24-.444-1.998-.178-.534-.077-.602-.321-1.11-.235-.489-.51-1.224-.9-1.442-.267-.15-.496-.235-.776-.111-.286.126-.444.666-.444.666l.555.11s.515.29.777.555c.673.683.663 1.378.776 2.33.067.56.074.885 0 1.443-.082.626-.178.981-.443 1.554a8.186 8.186 0 0 1-.444.777s.363.366.666.444c.338.087.443 0 .443 0s1.38-.084 1.776-.444c.258-.235.444-.777.444-.777s.772-.17.998-.555c.177-.3.111-.888.111-.888s.299-.171.444-.332c.145-.162.16-1.083.11-1.776-.046-.661-.332-1.665-.332-1.665ZM3.01 23.45l-.333-1.11s-.2.669-.222 1.11c-.036.705-.166 1.875.532 1.776.456-.065.56-.428.577-.888.015-.409-.554-.888-.554-.888Z" fill-opacity="0.6" style="mix-blend-mode:overlay"/></g><defs><linearGradient x1="14" y1="0" x2="20.834" y2="29.464" gradientUnits="userSpaceOnUse"><stop stop-color="#F1F7F8"/><stop offset="0.511" stop-color="#6D7473"/><stop offset="1" stop-color="#C58978"/></linearGradient><linearGradient x1="14" y1="0" x2="14" y2="28" gradientUnits="userSpaceOnUse"><stop stop-color="#fff"/><stop offset="1" stop-color="#fff" stop-opacity="0"/></linearGradient><clipPath><path d="M0 0h28v28H0z"/></clipPath></defs></symbol><symbol xmlns="http://www.w3.org/2000/svg" id="clash" viewBox="0 0 28 28"><g clip-path="url(#clip0_26261_5261)"><path fill-rule="evenodd" clip-rule="evenodd" d="M27.864 25.723c.006.297-.003.565-.058.808v.001a2.51 2.51 0 0 0 .094-1.673c-.103-.378-.113-.4-.468-.265-.43.166-1.109.027-1.32-.35a1.02 1.02 0 0 0-.2-.25c-.124-.117-.268-.201-.411-.302-.088-.062-.154-.157-.222-.248a1.429 1.429 0 0 0-.084-.102 13.383 13.383 0 0 0-.23-.243 10.795 10.795 0 0 1-.25-.262 5.102 5.102 0 0 0-.12-.127c-.124-.126-.25-.254-.32-.406-.094-.201-.256-.005-.334-.308-.078-.302-.266-.447-.543-.554-.429-.166-.682-.483-.71-.959a.564.564 0 0 0-.064-.25 21.446 21.446 0 0 0-.294-.473l-.235-.368s-.26.607-.298.671c-.323.555-.727 1.062-1.274 1.392-.27.163-.619.355-.99.512.291.162.569.348.853.523.02.011.038.024.057.037a.5.5 0 0 0 .173.086c.305.06.462.256.566.533a.757.757 0 0 0 .236.336c.363.265.634.529 1.067.831.168.118.36.25.436.292.3.168.598.33.75.674.052.116.19.21.309.277.751.417.986 1.002.728 1.81-.034.107-.003.234-.002.406.529.006.999.058 1.456.003.277-.032.538-.104.771-.225-.318.104-.795.083-1.064-.063l.294-.202 1.312-.435.39-1.128Zm-5.614-4.28-.893.706L22.8 21.6l-.55-.158Zm.487 1.57 1.083-.046-.762.445s-.08-.035-.18-.085a2.8 2.8 0 0 1-.168-.093l.027-.22Zm.94-.554-1.705.544 1.374-.94.331.396ZM24.7 23.7l-1.354.43 1.054-.648.3.218Zm-.566 1.215 1.57-.541-.51-.244-1.06.785Z"/><path fill-rule="evenodd" clip-rule="evenodd" d="M27.864 25.723c.006.297-.003.565-.058.808v.001a2.51 2.51 0 0 0 .094-1.673c-.103-.378-.113-.4-.468-.265-.43.166-1.109.027-1.32-.35a1.02 1.02 0 0 0-.2-.25c-.124-.117-.268-.201-.411-.302-.088-.062-.154-.157-.222-.248a1.429 1.429 0 0 0-.084-.102 13.383 13.383 0 0 0-.23-.243 10.795 10.795 0 0 1-.25-.262 5.102 5.102 0 0 0-.12-.127c-.124-.126-.25-.254-.32-.406-.094-.201-.256-.005-.334-.308-.078-.302-.266-.447-.543-.554-.429-.166-.682-.483-.71-.959a.564.564 0 0 0-.064-.25 21.446 21.446 0 0 0-.294-.473l-.235-.368s-.26.607-.298.671c-.323.555-.727 1.062-1.274 1.392-.27.163-.619.355-.99.512.291.162.569.348.853.523.02.011.038.024.057.037a.5.5 0 0 0 .173.086c.305.06.462.256.566.533a.757.757 0 0 0 .236.336c.363.265.634.529 1.067.831.168.118.36.25.436.292.3.168.598.33.75.674.052.116.19.21.309.277.751.417.986 1.002.728 1.81-.034.107-.003.234-.002.406.529.006.999.058 1.456.003.277-.032.538-.104.771-.225-.318.104-.795.083-1.064-.063l.294-.202 1.312-.435.39-1.128Zm-5.614-4.28-.893.706L22.8 21.6l-.55-.158Zm.487 1.57 1.083-.046-.762.445s-.08-.035-.18-.085a2.8 2.8 0 0 1-.168-.093l.027-.22Zm.94-.554-1.705.544 1.374-.94.331.396ZM24.7 23.7l-1.354.43 1.054-.648.3.218Zm-.566 1.215 1.57-.541-.51-.244-1.06.785Z" fill-opacity="0.6" style="mix-blend-mode:overlay"/><path fill-rule="evenodd" clip-rule="evenodd" d="M19.926 19.703s1.117.238 1.244.238v-.002c.036-.054.077-.11.119-.17.099-.137.205-.286.276-.45.226-.523.559-1.45.544-2.093a3.408 3.408 0 0 0-.169-.455c-.119-.262-.325-.36-.592-.36a4.299 4.299 0 0 0-.634.04c-.22.035-.387-.007-.543-.178-.2-.22-.442-.133-.695.02-.029.017-.004-.041.021-.1.028-.064.055-.13.02-.106-.083-.035-.171-.057-.241-.106-.65-.457-1.726-1.797-3.035-3.428-1.386-1.725-3.031-3.774-4.707-5.443C8.54 4.126 4.164 1.835 2.65 1.115 1.635.633 0 0 0 0s.896 5.275 7.136 11.491c1.605 1.6 3.737 3.228 5.554 4.615 2.01 1.536 3.635 2.776 3.731 3.356 0 .209-.145.428-.145.428s.063.064.135.144c.063.07.132.154.17.218l-.058.322a9.914 9.914 0 0 1-.04.205c-.111.539.088.85.427 1.032.466.19.947.254 1.444.15.542-.116 1.344-.612 1.747-1.032a105.07 105.07 0 0 1-.175-1.226Zm-3.07-2.933s1.602 1.206 2.547 1.901c-.003.088.142.54-.504.482a46.941 46.941 0 0 1-.364-.439c-.35-.422-1.047-1.25-1.047-1.25l-.633-.694Zm2.773.532s-.875-.136-1.422-.407c-.264-.131-.379-.226-.648-.388a54.485 54.485 0 0 1-1.284-.814l-.421-.112-.027.292 1.47 2.59.295.67.298.604.07.143.489-.016-.207.181-.716.146c-.047-.212-.096-.458-.154-.702-.24-1.008-1.423-2.65-1.423-2.65s-1.099-1.373-1.836-2.226c-2.298-2.658-4.027-3.737-6.363-6.363-1.08-1.213-2.68-3.18-2.68-3.18s2.048 1.515 3.293 2.567c2.686 2.266 3.668 4.108 6.364 6.363a79.22 79.22 0 0 0 2.306 1.818s1.546 1.046 2.424 1.387c.06.024.172.097.172.097Z"/><path fill-rule="evenodd" clip-rule="evenodd" d="M19.926 19.703s1.117.238 1.244.238v-.002c.036-.054.077-.11.119-.17.099-.137.205-.286.276-.45.226-.523.559-1.45.544-2.093a3.408 3.408 0 0 0-.169-.455c-.119-.262-.325-.36-.592-.36a4.299 4.299 0 0 0-.634.04c-.22.035-.387-.007-.543-.178-.2-.22-.442-.133-.695.02-.029.017-.004-.041.021-.1.028-.064.055-.13.02-.106-.083-.035-.171-.057-.241-.106-.65-.457-1.726-1.797-3.035-3.428-1.386-1.725-3.031-3.774-4.707-5.443C8.54 4.126 4.164 1.835 2.65 1.115 1.635.633 0 0 0 0s.896 5.275 7.136 11.491c1.605 1.6 3.737 3.228 5.554 4.615 2.01 1.536 3.635 2.776 3.731 3.356 0 .209-.145.428-.145.428s.063.064.135.144c.063.07.132.154.17.218l-.058.322a9.914 9.914 0 0 1-.04.205c-.111.539.088.85.427 1.032.466.19.947.254 1.444.15.542-.116 1.344-.612 1.747-1.032a105.07 105.07 0 0 1-.175-1.226Zm-3.07-2.933s1.602 1.206 2.547 1.901c-.003.088.142.54-.504.482a46.941 46.941 0 0 1-.364-.439c-.35-.422-1.047-1.25-1.047-1.25l-.633-.694Zm2.773.532s-.875-.136-1.422-.407c-.264-.131-.379-.226-.648-.388a54.485 54.485 0 0 1-1.284-.814l-.421-.112-.027.292 1.47 2.59.295.67.298.604.07.143.489-.016-.207.181-.716.146c-.047-.212-.096-.458-.154-.702-.24-1.008-1.423-2.65-1.423-2.65s-1.099-1.373-1.836-2.226c-2.298-2.658-4.027-3.737-6.363-6.363-1.08-1.213-2.68-3.18-2.68-3.18s2.048 1.515 3.293 2.567c2.686 2.266 3.668 4.108 6.364 6.363a79.22 79.22 0 0 0 2.306 1.818s1.546 1.046 2.424 1.387c.06.024.172.097.172.097Z" fill-opacity="0.6" style="mix-blend-mode:overlay"/><path fill-rule="evenodd" clip-rule="evenodd" d="M.194 26.531c-.056-.243.206.754.206.754h1.437l.294.202c-.269.146-.746.167-1.065.063.234.12.496.193.772.225.312.038.63.025.969.012.157-.007.32-.013.487-.015a1.776 1.776 0 0 1 .008-.162.66.66 0 0 0-.01-.244c-.258-.808-.023-1.393.728-1.81.12-.066.258-.16.308-.277.15-.338.44-.5.736-.666l.015-.008c.028-.015.07-.043.122-.076.09-.06.207-.14.314-.216a7.84 7.84 0 0 0 .41-.308c.226-.181.422-.352.657-.523a.757.757 0 0 0 .236-.336c.104-.277.26-.472.566-.533a.345.345 0 0 0 .11-.046 1.45 1.45 0 0 0 .063-.04l.003-.003.054-.034.256-.16.017-.011c.191-.121.383-.242.58-.352a7.995 7.995 0 0 1-.99-.512c-.547-.33-.951-.837-1.274-1.392-.049-.084-.298-.67-.298-.67l-.117.182c-.14.22-.28.437-.412.658a.452.452 0 0 0-.053.153.848.848 0 0 0-.01.097c-.029.476-.282.793-.71.96-.278.106-.466.251-.544.553-.043.169-.113.183-.182.197-.055.01-.11.022-.152.111-.07.152-.196.28-.32.406l-.06.063-.06.064c-.156.172-.323.334-.48.505a1.824 1.824 0 0 0-.108.135c-.06.08-.12.16-.198.215-.227.16-.456.28-.61.552-.212.377-.89.516-1.32.35-.356-.136-.366-.113-.469.265a2.506 2.506 0 0 0 .094 1.673Zm6.449-4.382c-.564-.233-1.571-.541-1.571-.541s1.206-.116 1.57.54Zm-2.463.819 1.02.07-.258.374-.762-.444Zm1.02.07-.878-.579 1.569.108-.69.47Zm-.258.654-.614.552-1.245-.655 1.859.103ZM3.6 25l-1.304-.626 1.596.155L3.6 25Z"/><path fill-rule="evenodd" clip-rule="evenodd" d="M.194 26.531c-.056-.243.206.754.206.754h1.437l.294.202c-.269.146-.746.167-1.065.063.234.12.496.193.772.225.312.038.63.025.969.012.157-.007.32-.013.487-.015a1.776 1.776 0 0 1 .008-.162.66.66 0 0 0-.01-.244c-.258-.808-.023-1.393.728-1.81.12-.066.258-.16.308-.277.15-.338.44-.5.736-.666l.015-.008c.028-.015.07-.043.122-.076.09-.06.207-.14.314-.216a7.84 7.84 0 0 0 .41-.308c.226-.181.422-.352.657-.523a.757.757 0 0 0 .236-.336c.104-.277.26-.472.566-.533a.345.345 0 0 0 .11-.046 1.45 1.45 0 0 0 .063-.04l.003-.003.054-.034.256-.16.017-.011c.191-.121.383-.242.58-.352a7.995 7.995 0 0 1-.99-.512c-.547-.33-.951-.837-1.274-1.392-.049-.084-.298-.67-.298-.67l-.117.182c-.14.22-.28.437-.412.658a.452.452 0 0 0-.053.153.848.848 0 0 0-.01.097c-.029.476-.282.793-.71.96-.278.106-.466.251-.544.553-.043.169-.113.183-.182.197-.055.01-.11.022-.152.111-.07.152-.196.28-.32.406l-.06.063-.06.064c-.156.172-.323.334-.48.505a1.824 1.824 0 0 0-.108.135c-.06.08-.12.16-.198.215-.227.16-.456.28-.61.552-.212.377-.89.516-1.32.35-.356-.136-.366-.113-.469.265a2.506 2.506 0 0 0 .094 1.673Zm6.449-4.382c-.564-.233-1.571-.541-1.571-.541s1.206-.116 1.57.54Zm-2.463.819 1.02.07-.258.374-.762-.444Zm1.02.07-.878-.579 1.569.108-.69.47Zm-.258.654-.614.552-1.245-.655 1.859.103ZM3.6 25l-1.304-.626 1.596.155L3.6 25Z" fill-opacity="0.6" style="mix-blend-mode:overlay"/><path fill-rule="evenodd" clip-rule="evenodd" d="M6.83 19.941c.127 0 1.244-.238 1.244-.238s-.15 1.078-.175 1.226c.403.42 1.205.916 1.747 1.031.497.105.978.04 1.444-.15.338-.18.538-.492.427-1.03a8.95 8.95 0 0 1-.034-.175l-.064-.353a.963.963 0 0 1 .07-.099c.02-.025.041-.052.063-.077.085-.099.172-.186.172-.186s-.145-.22-.145-.428c.057-.343.648-.916 1.537-1.645a122.05 122.05 0 0 0-1.541-1.246c-.39-.312-.795-.633-1.17-.931h-.001l-.018-.015-.096-.076-.61-.485c-.377.42-.7.737-.956.917-.07.049-.158.07-.24.106-.037-.023-.009.042.019.105.025.06.05.117.021.1-.253-.152-.495-.24-.695-.02-.156.172-.323.214-.543.18a4.298 4.298 0 0 0-.634-.04c-.267-.002-.474.097-.592.36-.069.15-.125.302-.17.454-.014.643.32 1.57.545 2.092.1.234.275.438.394.621l.001.002Zm1.767-1.27.713-.522c.452-.33.918-.67 1.27-.934a7.97 7.97 0 0 0 .565-.445c-.066.154-.137.215-.25.312-.093.08-.213.183-.383.381-.351.412-.697.83-1.047 1.251l-.051.063-.313.376c-.563.051-.525-.287-.508-.432l.004-.05Z"/><path fill-rule="evenodd" clip-rule="evenodd" d="M6.83 19.941c.127 0 1.244-.238 1.244-.238s-.15 1.078-.175 1.226c.403.42 1.205.916 1.747 1.031.497.105.978.04 1.444-.15.338-.18.538-.492.427-1.03a8.95 8.95 0 0 1-.034-.175l-.064-.353a.963.963 0 0 1 .07-.099c.02-.025.041-.052.063-.077.085-.099.172-.186.172-.186s-.145-.22-.145-.428c.057-.343.648-.916 1.537-1.645a122.05 122.05 0 0 0-1.541-1.246c-.39-.312-.795-.633-1.17-.931h-.001l-.018-.015-.096-.076-.61-.485c-.377.42-.7.737-.956.917-.07.049-.158.07-.24.106-.037-.023-.009.042.019.105.025.06.05.117.021.1-.253-.152-.495-.24-.695-.02-.156.172-.323.214-.543.18a4.298 4.298 0 0 0-.634-.04c-.267-.002-.474.097-.592.36-.069.15-.125.302-.17.454-.014.643.32 1.57.545 2.092.1.234.275.438.394.621l.001.002Zm1.767-1.27.713-.522c.452-.33.918-.67 1.27-.934a7.97 7.97 0 0 0 .565-.445c-.066.154-.137.215-.25.312-.093.08-.213.183-.383.381-.351.412-.697.83-1.047 1.251l-.051.063-.313.376c-.563.051-.525-.287-.508-.432l.004-.05Z" fill-opacity="0.6" style="mix-blend-mode:overlay"/><path d="M20.864 11.491a33.719 33.719 0 0 1-2.25 2.02c-.29-.299-1.021-1.206-1.714-2.02-.147-.172 6.253-6.11 6.1-6.291-.15-.178-6.565 5.782-6.718 5.6-.434-.515-1.023-1.192-1.396-1.638l-.16-.19a39.075 39.075 0 0 1 1.74-1.862c2.995-2.984 7.37-5.275 8.885-5.995C26.365.633 28 0 28 0s-.896 5.275-7.136 11.491Z"/><path d="M20.864 11.491a33.719 33.719 0 0 1-2.25 2.02c-.29-.299-1.021-1.206-1.714-2.02-.147-.172 6.253-6.11 6.1-6.291-.15-.178-6.565 5.782-6.718 5.6-.434-.515-1.023-1.192-1.396-1.638l-.16-.19a39.075 39.075 0 0 1 1.74-1.862c2.995-2.984 7.37-5.275 8.885-5.995C26.365.633 28 0 28 0s-.896 5.275-7.136 11.491Z" fill-opacity="0.6" style="mix-blend-mode:overlay"/></g><defs><linearGradient x1="14" y1="0" x2="14" y2="27.8" gradientUnits="userSpaceOnUse"><stop stop-color="#fff"/><stop offset="1" stop-color="#fff" stop-opacity="0"/></linearGradient><linearGradient x1="14" y1="0" x2="20.741" y2="29.275" gradientUnits="userSpaceOnUse"><stop stop-color="#F1F7F8"/><stop offset="0.511" stop-color="#6D7473"/><stop offset="1" stop-color="#C58978"/></linearGradient><linearGradient x1="14" y1="0" x2="20.741" y2="29.275" gradientUnits="userSpaceOnUse"><stop stop-color="#F1F7F8"/><stop offset="0.511" stop-color="#6D7473"/><stop offset="1" stop-color="#C58978"/></linearGradient><linearGradient x1="14" y1="0" x2="14" y2="27.8" gradientUnits="userSpaceOnUse"><stop stop-color="#fff"/><stop offset="1" stop-color="#fff" stop-opacity="0"/></linearGradient><linearGradient x1="14" y1="0" x2="20.741" y2="29.275" gradientUnits="userSpaceOnUse"><stop stop-color="#F1F7F8"/><stop offset="0.511" stop-color="#6D7473"/><stop offset="1" stop-color="#C58978"/></linearGradient><linearGradient x1="14" y1="0" x2="14" y2="27.8" gradientUnits="userSpaceOnUse"><stop stop-color="#fff"/><stop offset="1" stop-color="#fff" stop-opacity="0"/></linearGradient><linearGradient x1="14" y1="0" x2="20.741" y2="29.275" gradientUnits="userSpaceOnUse"><stop stop-color="#F1F7F8"/><stop offset="0.511" stop-color="#6D7473"/><stop offset="1" stop-color="#C58978"/></linearGradient><linearGradient x1="14" y1="0" x2="14" y2="27.8" gradientUnits="userSpaceOnUse"><stop stop-color="#fff"/><stop offset="1" stop-color="#fff" stop-opacity="0"/></linearGradient><linearGradient x1="14" y1="0" x2="20.741" y2="29.275" gradientUnits="userSpaceOnUse"><stop stop-color="#F1F7F8"/><stop offset="0.511" stop-color="#6D7473"/><stop offset="1" stop-color="#C58978"/></linearGradient><linearGradient x1="14" y1="0" x2="14" y2="27.8" gradientUnits="userSpaceOnUse"><stop stop-color="#fff"/><stop offset="1" stop-color="#fff" stop-opacity="0"/></linearGradient><clipPath><path d="M0 0h28v28H0z"/></clipPath></defs></symbol><symbol xmlns="http://www.w3.org/2000/svg" id="games" viewBox="0 0 28 28"><path d="M19.65 3.787a2.69 2.69 0 0 0-.098-.313l-.447-.356-.164-.114-.004-.002-.43-.298c0-.01.007-.06.018-.13v-.002l.019-.125c.102.005.204.015.307.024l.049.004-.208-.275c-.168.043-.335.094-.5.144-.26.08-1.703-.052-1.703-.052s.542-.309.946-.356c1.066-.125 2.123-.254 3.133.055.323.098.638.107.951.116.182.005.363.01.545.032.683.087 1.335.268 1.864.727.087.075.157.169.22.27l.616.153c.062.011.124.027.186.046l.15.038.016.023c.622.26 1.196.867 1.237 1.35a.873.873 0 0 0 .084-.12.697.697 0 0 1 .134-.15c.025-.024.05-.047.073-.071a.453.453 0 0 0 .04.02c.022.009.038.016.038.025l.035.306v.002c.045.376.089.352.11.73a1.35 1.35 0 0 1-.051.46c.347-.266.36-.484.19-1.006.476.263.4 1.17.031 1.59-1.125 1.281-3.097 1.249-4.37.62-.301-.15-.567-.37-.832-.59-.125-.103-.25-.206-.378-.302-.14-.106-.283-.21-.44-.325l-.003-.002-.002-.002-.265-.194a25.655 25.655 0 0 1 .315-.19c.017-.112.034-.024.053-.144v-.002l.067-.438.018.017v-.012l-.563-.935c-.146.176-.395.3-.495.255-.205-.09-.44-.299-.492-.501ZM7.362 11.23c.545-.456 1.048-.466 1.597-.023.402.325.87.608 1.358.349.318-.171.618-.149.916-.127.14.01.28.021.42.011.185.465-.098.66-.374.851a5.536 5.536 0 0 0-.098.07c-1.198.866-1.697 2.04-1.542 3.495a.405.405 0 0 0 .013.068c.1 1.201.464 2.37.464 2.37s-2.33.066-2.637-.203c-.13-.113-.31-.34-.33-.524a3.093 3.093 0 0 1 0-.474 3.44 3.44 0 0 0 .03-.283c.102-1.337.448-2.566 1.495-3.503a.704.704 0 0 0 .154-.265c.015-.037.029-.073.044-.102-.123-.017-.24-.031-.354-.045-.274-.034-.525-.065-.773-.115-.29-.059-.469.033-.523.313-.087.44-.358.605-.783.584a3.282 3.282 0 0 0-.295 0 5.054 5.054 0 0 1-.214.005c-.503-.012-.586-.095-.63-.587l-.029-.325c-.06-.71-.122-1.42-.195-2.127a3.318 3.318 0 0 0-.02-.157l1.303.848a.795.795 0 0 0 .794.046.804.804 0 0 0 .21-.15Zm11.658.536a2.34 2.34 0 0 0-.196.217 2.15 2.15 0 0 1-.219.237c-.101.091-.21.175-.32.258a4.117 4.117 0 0 0-.374.309c-.75.725-1.087 1.629-1.055 2.661-.064 1.635.362 2.846.362 2.846l-1.654-.069c-.512-.021-1.137-.182-1.137-.694-.001-.181.034-.563.07-.969.022-.237.044-.482.06-.701.182-1.01.598-1.92 1.417-2.665.063-.056.096-.144.134-.244.019-.05.039-.103.064-.156-.13 0-.252.007-.368.014-.24.013-.454.026-.646-.03-.417-.12-.53-.118-.657.308-.108.365-.332.544-.713.535a9.703 9.703 0 0 0-.586.002c-.39.014-.562-.184-.598-.56a27.937 27.937 0 0 0-.171-1.396.948.948 0 0 0-.105-.342l1.432-.225c.421.368.507.355.95-.017a1.13 1.13 0 0 1 1.486.014c.367.313.781.584 1.275.417l.087-.03c.335-.116.658-.227 1.014-.167l.449.447Z"/><path fill-rule="evenodd" clip-rule="evenodd" d="M2.91 8.858c.25-.51-.098-1.51-.098-1.51l-.379-.206c-.299-.157-.439-.005-.694.273a6.589 6.589 0 0 1-.212.223C.905 8.26.242 7.531.346 7.23-.231 8.015-.07 9.004.7 9.567c.122.09.228.287.233.438.024.802-.115 3.436-.115 3.436H.206v5.398l.672.08c.042-.412.275-.706.595-.742.548-.06 1.061.172 1.198.54.068.184.355.941.355.941l.516.395c-.045-.256.035-1.739.051-1.682l.05.176c.382 1.34.818 2.874 2.652 2.874l5.143.003h.01c4.568.003 9.134.006 13.702 0a4 4 0 0 0 1.283-.236c1.13-.396 1.56-1.05 1.56-2.239 0-.927.002-1.792.004-2.644v-.003c.002-1.328.005-3.42 0-4.866-.004-1.393-.027-2.79-.072-4.183-.005-.156-.077-.312-.16-.49a3.885 3.885 0 0 1-.125-.286l-.089.144a4.03 4.03 0 0 1-.118.187c-.494.718-1.137 1.232-2.024 1.33-1.478.168-2.793-.26-4.022-1.087-.52-.35-1.127-.59-1.723-.81a1.563 1.563 0 0 0-.917-.016c-.126.036-.218.186-.31.336-.04.066-.08.132-.123.189.042.017.084.035.125.054.105.046.21.092.32.122.137.038.28.063.447.093l.23.041c-.562.525-1.038.45-1.332-.094a1.505 1.505 0 0 0-.223-.286c-.044-.048-.091-.099-.14-.156.031-.073.093-.22.177-.426l-1.068.398c.1-.065.19-.12.273-.171.157-.097.287-.176.398-.276l.031-.029c.265-.237.523-.47.912-.416.202.029.402.08.602.13l.184.047c.262.066.466.063.502-.285.007-.085.089-.22.157-.233.26-.052.389-.257.33-.445-.054-.17-.264-.323-.438-.412a2.014 2.014 0 0 0-.19-.082c-.215-.084-.426-.166-.464-.45-.033-.247-.156-.35-.39-.405-.239-.054-.472-.125-.41-.492.042-.261-.184-.35-.429-.221a.558.558 0 0 1-.32.059c-.167-.023-.335-.057-.503-.09-.329-.067-.657-.133-.98-.113-.199.013-.401.008-.604.004-.496-.01-.995-.022-1.466.21-.066.033-.196-.03-.28-.077-.226-.125-.46-.036-.415.202.063.345-.128.417-.344.5l-.08.03-.005.002c-.122.05-.312.126-.321.207-.054.495-.403.622-.798.728-.341.092-.508.475-.266.685l.064.054c.201.17.383.323.451.598.01.04.19.063.285.047.075-.014.15-.041.223-.068a.932.932 0 0 1 .302-.076c.045 0 .09-.002.136-.004.29-.009.595-.019.84.089.26.115.492.295.74.488.114.09.232.18.357.27l-1.139-.399c.087.224.141.367.158.412-.056.07-.108.13-.156.186-.087.102-.16.187-.216.283-.322.546-.795.612-1.316.075.089-.016.172-.03.25-.042.172-.029.324-.054.473-.088.088-.02.174-.052.26-.085l.133-.049a2.428 2.428 0 0 1-.072-.163c-.05-.124-.1-.247-.19-.326-.11-.1-.312-.12-.475-.125-.847-.019-1.583.353-2.242.805-1.208.826-2.488 1.285-3.961 1.177a2.656 2.656 0 0 1-1.527-.626c-.426-.35-.782-.756-.94-1.316-.001.308.017.614.035.92.009.158.018.714.024.872.007.163.015.382-.077.483-.31.338-.322.743-.335 1.149l-.002-.338c-.012.333-.017 1.464-.023 1.797-.006.384-.012.768-.029 1.152-.007.141-.084.36-.188.402-.367.151-.558.408-.607.784-.028.222-.115.302-.339.229-.085-.029-.194-.22-.194-.22s-.067-2.242-.067-3.478c0-.255.11-.42.325-.572.179-.127.315-.34.414-.542Zm1.887.979h-.003s-.238 4.654.056 7.048c.057-.04.104-.07.144-.094.062-.04.103-.065.127-.101.174-.276.39-.45.672-.525-.07.073-.134.156-.177.23-.104.175-.185.665-.263 1.132-.065.39-.127.763-.197.926-.279.647.584 1.125 1.258.915.08-.025.15-.043.204-.052.351-.06.699.044 1.045.148.373.112.745.223 1.118.13 1.125-.28 2.255-.557 3.383-.832a12.1 12.1 0 0 1 .472-.103 6.82 6.82 0 0 0 .827-.204c.308-.105.452-.027.523.258.095.376.353.554.716.554a36.066 36.066 0 0 0 2.118-.083c1.496-.092 3.79-.22 4.596-.045.421.091 1.803.189 3.028.26a2.006 2.006 0 0 0 2.12-1.997l.005-.814-.001-.005c.24-1.164.278-4.026.022-4.884-.066.372-.313.547-.61.742-.563.367-1.019.838-1.25 1.458-.509.678-.005 4.395-.005 4.395s-2.83 0-2.83-.53c0-.385.016-.938.033-1.402.141-1.155.56-2.193 1.48-3.027a.554.554 0 0 0 .124-.227c.017-.046.035-.094.058-.142a2.02 2.02 0 0 0-.502.014c-.246.027-.477.054-.712-.078-.222-.122-.393.085-.431.318-.073.454-.358.603-.777.59h-.276c-.13 0-.258 0-.387-.006-.323-.014-.492-.177-.527-.509-.052-.477-.106-.96-.203-1.43a.236.236 0 0 0-.012-.04l-.163-.976 2.065.475c.121-.01.247-.105.461-.283.452-.374 1.036-.367 1.488.014.357.304.746.54 1.242.433a26.829 26.829 0 0 0 .992-.231l.169-.01v-.897l-.034-.001-.009-.02a1.09 1.09 0 0 1-.101-.276c-.075-.438-.23-.52-.579-.283-.605.415-.723.422-1.29-.082-.532-.473-1.43-.596-2.014-.125a4.237 4.237 0 0 1-.502.332 12.37 12.37 0 0 0-.083.05h-.098l.189-.398h-1.332L19 10.25l-.766-.64-.062.038c-.135.082-.238.144-.34.21-.553.355-.723.346-1.208-.073-.748-.645-1.49-.647-2.294-.021-.1.078-.214.142-.327.206a.456.456 0 0 1-.007.004h-.113l.204-.398H12.74c.07.129.144.244.228.338L11.3 9.453l-1.043.612c-.292.115-.477.028-.833-.279-.748-.645-1.49-.647-2.294-.021-.1.078-.214.142-.327.206l-.168.098.252-.492H5.636l-.839.26Zm10.436-5.635c-.023.046-.046.091-.061.133v.003c.06.014.12.03.181.046.374.1.745.2 1.087-.131a40.91 40.91 0 0 1-.057-.275l-.058-.276c.093 0 .184-.001.274-.003.23-.004.448-.007.665.015.092.01.254.188.238.24-.07.212-.165.435-.313.6a3.33 3.33 0 0 1-.39.35c-.115.093-.23.186-.333.29-.37.372-.85.36-1.224-.02a2.119 2.119 0 0 0-.309-.244 1.785 1.785 0 0 1-.345-.282c-.173-.198-.287-.451-.396-.696l-.01-.024c-.015-.028.216-.23.258-.21.11.058.241.024.37-.01.205-.053.403-.105.5.206.027.08-.026.186-.078.288ZM3.493 24.005c-.06.503-.123 1.048-.107 1.644l.002.002c.01.335.339.46.259.391.096.016.194.038.294.06a3.2 3.2 0 0 0 .678.098c3.18 0 6.358-.006 9.537-.013h.029l4.785-.008c1.023-.002 2.046-.002 3.07 0h.004c1.608 0 3.215.001 4.824-.007a2.59 2.59 0 0 0 .624-.11 6.03 6.03 0 0 1 .293-.07l.004-.005a.409.409 0 0 1 .015-.017v-.001c.047-.052.16-.18.163-.301.009-.606-.032-1.15-.069-1.641-.028-.374-.054-.718-.054-1.038-.002-.645-.172-.826-.802-.826h-.015c-7.559.002-15.118.005-22.676.01-.452.002-.765.312-.77.769a10.16 10.16 0 0 1-.088 1.063Zm18.682-.307.014.145.005.005-.985.084h-.002l-.988.083a.799.799 0 0 0-.009.035l-.01.036 1.102.344c.002.047.002.096.002.143-.304.083-.617.116-.937.15-.356.038-.719.077-1.082.184.26 0 .515 0 .766-.002h.005a85.38 85.38 0 0 1 1.46.002c1.631.022 3.26.045 4.888.088.138.004.273.068.409.132.06.03.122.058.184.082l-.014.099-.012.09a5.81 5.81 0 0 0-.154.023c-.125.02-.25.04-.375.04-3.436.002-6.875.002-10.311.002h-.017c-3.753 0-7.507 0-11.26-.005-.118 0-.234-.014-.35-.028-.054-.007-.107-.014-.16-.019l-.017-.085a4.295 4.295 0 0 0-.016-.084 2.16 2.16 0 0 0 .164-.073c.118-.055.235-.11.356-.116 1.135-.047 2.27-.082 3.405-.117l.852-.026.05.001c.04.003.078.005.103-.013.216-.166.431-.336.66-.518l.001-.001.389-.307-.374-.111h-.001l-.003-.002-.007-.002h-.002l-.004-.002-.297-.088c.003-.045.005-.09.005-.134.15-.015.3-.032.449-.049h.001c.356-.04.713-.08 1.07-.09.5-.014 1-.016 1.501-.018h.002c.605-.003 1.21-.006 1.813-.03.276-.008.553-.051.829-.093.344-.053.688-.106 1.03-.094 1.364.046 2.727.126 4.09.206.507.03 1.014.06 1.52.088.064.003.128.017.19.03l.028.006.018.003.015.003.011.003Z"/><path fill-rule="evenodd" clip-rule="evenodd" d="M7.488 3.092a.301.301 0 0 0-.024.027l-.576.191c-.831.133-1.53.834-1.573 1.456a.842.842 0 0 1-.101-.14.68.68 0 0 0-.135-.15c-.025-.024-.05-.047-.072-.071l-.04.02c-.022.009-.038.016-.038.025a72.63 72.63 0 0 1-.035.306v.002c-.045.376-.089.552-.111.93-.01.141.007.312.052.458-.347-.265-.36-.682-.19-1.204-.476.263-.4 1.17-.031 1.59 1.124 1.281 3.097 1.249 4.37.62.301-.15.566-.37.832-.59.124-.103.249-.206.377-.302.141-.106.283-.21.441-.325l.27-.198a18.96 18.96 0 0 0-.122-.073h.018l-.278-.354-.022-.141v-.9l.567-.188c.167.142.392.244.515.186.182-.085.377-.299.417-.487.03-.138.067-.267.12-.386l.738-.491.111-.07.004-.002.18-.113a15.583 15.583 0 0 0-.052-.243l.118-.157a2 2 0 0 0 .822-.017c.433-.09 1.122-.151 1.122-.151-.25-.173-.553-.143-.833-.183-1.28-.182-2.542-.252-3.77.174a.733.733 0 0 1-.304.022c-1.068-.12-2.002.17-2.767.93Z"/><defs><linearGradient x1="14" y1="1.8" x2="14" y2="26.2" gradientUnits="userSpaceOnUse"><stop stop-color="#999"/><stop offset="1" stop-color="#B29B9B"/></linearGradient><linearGradient x1="14" y1="1.8" x2="14" y2="26.2" gradientUnits="userSpaceOnUse"><stop stop-color="#999"/><stop offset="1" stop-color="#B29B9B"/></linearGradient><linearGradient x1="14" y1="1.8" x2="14" y2="26.2" gradientUnits="userSpaceOnUse"><stop stop-color="#999"/><stop offset="1" stop-color="#B29B9B"/></linearGradient><linearGradient x1="14" y1="1.8" x2="14" y2="26.2" gradientUnits="userSpaceOnUse"><stop stop-color="#999"/><stop offset="1" stop-color="#B29B9B"/></linearGradient><linearGradient x1="14" y1="1.8" x2="14" y2="26.2" gradientUnits="userSpaceOnUse"><stop stop-color="#999"/><stop offset="1" stop-color="#B29B9B"/></linearGradient><linearGradient x1="14" y1="1.8" x2="14" y2="26.2" gradientUnits="userSpaceOnUse"><stop stop-color="#999"/><stop offset="1" stop-color="#B29B9B"/></linearGradient></defs></symbol><symbol xmlns="http://www.w3.org/2000/svg" id="home" viewBox="0 0 28 28"><path d="M1.263 18.865h-.208l.14-5.978.068 5.978ZM7.154 8.438l.07-1.39 13.03-.07.138 1.668-13.238-.208Zm8.941 10.427-.07-5.978-.138 5.978h.208Zm8.733.278-.277-.487.069-.417.277.626-.07.278Zm-.278-.487-.069-.417-.485-.209-.139.209v.278l.278.14h.415Zm.14-1.251-.14.417.07.278-.555-.209.07-.973h.277l.277.487Z"/><path d="m23.996 17.752-.208.556-.277.21.208 1.25-.347-.347v-.904l-.416.209v-.278l1.04-.696Z"/><path d="M24.69 19.282h-.486v.139l.139.625v.417h-.416l.208-.347-.416-.834.07-.556.276.07h.485l.14.486Z"/><path d="m24.62 19.42.07.487-.07.417.138.14h-.277l.07-.07-.14-.556-.138-.417h.347Z"/><path fill-rule="evenodd" clip-rule="evenodd" d="M1.54 18.865h-.277l.137-5.95-.206-.028-.036-.064-.103-.006-.207-.348.111.005-.003-.005H.57v-2.57h1.608l.083-.418H.571v-.486h1.178l.069-1.112-.07-.487.14-.625H1.47v-.765l3.258.068v-.416H9.51l.139-.903-.07-.417-.554-.14-.763-.695h1.11l.277-.417.415.348.347-.348.762.348.208-.278.693.973.485-.834.624-.14.277-.486-.762-.347-.485-1.182 1.247.556.208.348L13.946 1l.209 1.043.138-.348 1.178-.556-.346.834-.832.904.416.417.277-.278.693.973.763-1.043.207.487.555-.487.346 1.53-.069-.835.485-.764.278.556 1.108.208-.831.487-.416-.07-.07.487.209.348.058.764h4.239v.505l3.88.051.209.765-.139 1.043-.064.973h.965v.486h-1.498l.192.418h1.306v2.572h-.485v.055l.346.014-.277.348-.068-.004.137 5.982h-.009l.007.278h.072V22.2h-.006l.004.197.348.012.4.486-2.033-.108.178.178v-.002l1.994.14-1.162.556-10.327-.348 5.475-.278-.606-.215-.919-.063v-.417l1.49.05-.153-.229-.99-.1V19.14h.746l-.009-.278h-.252l.108-4.68-.039-1.228-.205-.03.136 5.938h-.277l.136-5.938-.206-.03-.069-.01-.039-.067-.03-.002-.208-.347.04.001v-.001h-3.505v.058l.277.011-.272.34.087 6.264h.046V22.2h-.003l.003.197.056.002.083-.06 2.218.487-9.98.556 1.316-.487 1.059-.037-1.475-.102v-.417l1.607.054-.983-.123.164-.164-.441-.045v-2.92h.716l-.23-.277.069-5.77h-.202l.132 5.77h-.276v-.02l.131-5.75h-.199l.067 5.75v.02h-.207l.133-5.78-.118-.268h-.016l-.208-.348.07.003v-.002H7.223l-.01.057.287.012-.277.348-.068-.004.137 5.982h-.009l.006.278h.072V22.2h-.006l.004.148.002-.009 2.634.348-2.346.135-.01.073-.569-.04-.679.04 2.772.278-2.841.07 1.802.278L0 23.8l.086-.695 5.544-.428v-.337l.745.025.073-.255-.472-.048v-2.92h.702l-.009-.277h-.485l.053-2.294h-.08l.027 2.294h-.208l.07-2.99v-2.78h-.97l.484.278-.485.278H4.73l.485.209.138.764-.554-.278-.347.417 1.387.07v.348l-3.258.069v.209l3.258-.07v.278l-3.258.07s.555.131.555.556c0 .194-.03.276-.061.364-.037.104-.078.217-.078.54 0 .594-.208.764-.208.764v2.641h3.05s-.416.487-.416.974v.973h-.416l-.416-1.53H2.996l-.07.904.347.278-.277.209.208.347h-.465l-.02.14-2.01-.14v-.417l1.56.052-.149-.223-1.065-.107v-2.92h.815l-.008-.277h-.044l.019-.818-.145-4.692.126 5.51H1.54Zm0 0 .136-5.91-.272-.039.137 5.949Zm-.485-6.882h.694v-1.46h-.694v1.46Zm25.644-1.46h-.693v1.46h.693v-1.46Zm-.97.8a.451.451 0 1 0-.903-.002.451.451 0 0 0 .903.002Zm-1.11-.8h-.692v1.46h.693v-1.46Zm-6.995-4.866-.281-.903h-.001l-.12.903h.402Zm-.836-.834h-.624l-.06.834h.684v-.834Zm-3.396.834-.208-.625-.873.625h1.081Zm1.109 0-.693-.556-.416.556h1.109Zm0 0h.388l-.388-.556v.556Zm-2.277 0 .06-.417-.654.417h.594Zm-.708 0-.065-.973-.453.973h.518Zm-.596 0-.37-.556-.677.556h1.047ZM6.046 8.368l-.901.417-.208.209h16.407l-.172-2.572H5.819L5.7 8.16l.347.208Zm-4.09 2.955a.451.451 0 1 0 .903 0 .451.451 0 0 0-.903 0Zm1.179.66h.693v-1.46h-.693v1.46Zm.9-.66a.451.451 0 1 0 .903 0 .451.451 0 0 0-.902 0Zm1.179.66h.693v-1.46h-.693v1.46Zm.9-.66a.451.451 0 1 0 .903 0 .451.451 0 0 0-.902 0Zm1.18.66h.692v-1.46h-.693v1.46Zm.9-.66a.451.451 0 1 0 .902 0 .451.451 0 0 0-.902 0Zm1.178.66h.693v-1.46h-.693v1.46Zm.901-.66a.451.451 0 1 0 .903 0 .451.451 0 0 0-.903 0Zm1.178-.8v1.46h.694v-1.46h-.694Zm5.71 11.871h.007v.001h-.006ZM15.68 12.47h-3.604l.002.056.345.014-.277.347-.061-.003.074 3.562.056 2.42h-.005l.006.277h.068v3.058h-.004l.004.198.347.011-.061.43 2.972-.104v-.396l1.62.054-.858-.123.151-.151-.567-.057v-2.92h.855l-.231-.278h-.139l.133-5.77h-.265l.132 5.77h-.277l.132-5.77h-.063l-.119-.268-.158-.01-.208-.347Zm0 0h.208l.004.008-.212-.008Zm-2.876-1.6a.451.451 0 1 0 .001.903.451.451 0 0 0-.001-.902Zm.728-.347v1.46h.693v-1.46h-.693Zm1.351.348a.451.451 0 1 0 .002.902.451.451 0 0 0-.002-.902Zm.728-.348v1.46h.693v-1.46h-.693Zm.97 2.572h-.063l.042 1.802.021-1.802Zm-.07-1.772a.451.451 0 1 0 .903 0 .451.451 0 0 0-.902 0Zm1.18.66h.692v-1.46h-.693v1.46Zm.9-.66a.451.451 0 1 0 .902 0 .451.451 0 0 0-.902 0Zm1.178.66h.693v-1.46h-.693v1.46Zm.901-.66a.451.451 0 1 0 .903 0 .451.451 0 0 0-.903 0ZM4.621 9.48l-.075.418h19.329l.034-.418H4.621ZM23.2 11.774a.451.451 0 1 0-.001-.902.451.451 0 0 0 .001.902Zm-1.352-1.25v1.459h.694v-1.46h-.694Zm.644 12.235 2.475.207.547-.2-.13-.01v-.416l.676.023.074-.26-.404-.04v-2.92h.632l-.009-.278h-.415l.052-2.294h-.079l.027 2.294h-.208l.053-2.294h-.053v-3.476h-.97l.485.278-.486.278h-.346l.485.209.139.764-.555-.278-.346.417 1.386.07v.348l-3.258.069v.209l3.258-.07v.278l-3.258.07s.555.131.555.556c0 .194-.03.276-.06.364-.038.104-.079.217-.079.54 0 .594-.208.764-.208.764v2.641h3.05s-.416.487-.416.974v.973h-.416l-.416-1.53H22.68l-.07.904.347.278-.277.209.208.347h-.396v.002Z"/><path d="m20.947 12.896.069 5.967h-.208l.139-5.967ZM3.065 18.448l1.04-.696-.208.556-.277.21.208 1.25-.347-.347v-.904l-.416.209v-.278Z"/><path d="M4.451 20.046v.417h-.415l.208-.347-.416-.834.069-.556.277.07h.485l.139.486h-.485v.139l.138.625Z"/><path d="m4.729 19.42.069.487-.07.417.14.14H4.59l.07-.07-.14-.556-.138-.417h.347Zm-.485-2.502h.277l.277.487-.139.417.07.278-.555-.209.07-.973Zm-.278 1.321.139-.209.485.209.07.417h-.416l-.278-.139v-.278Z"/><path d="m4.66 18.656.277.487.069-.278-.277-.626-.07.417ZM0 24l18-.2 10 .2v.6l-20-.2H0V24Zm0 .6h7l7 .2h14v.6l-28-.2v-.6Zm28 .9v.7H0v-.8l14 .25 7-.275 7 .125Z"/><defs><linearGradient x1="14" y1="1" x2="14" y2="26.2" gradientUnits="userSpaceOnUse"><stop stop-color="#999"/><stop offset="1" stop-color="#B29B9B"/></linearGradient><linearGradient x1="14" y1="1" x2="14" y2="26.2" gradientUnits="userSpaceOnUse"><stop stop-color="#999"/><stop offset="1" stop-color="#B29B9B"/></linearGradient><linearGradient x1="14" y1="1" x2="14" y2="26.2" gradientUnits="userSpaceOnUse"><stop stop-color="#999"/><stop offset="1" stop-color="#B29B9B"/></linearGradient><linearGradient x1="14" y1="1" x2="14" y2="26.2" gradientUnits="userSpaceOnUse"><stop stop-color="#999"/><stop offset="1" stop-color="#B29B9B"/></linearGradient><linearGradient x1="14" y1="1" x2="14" y2="26.2" gradientUnits="userSpaceOnUse"><stop stop-color="#999"/><stop offset="1" stop-color="#B29B9B"/></linearGradient><linearGradient x1="14" y1="1" x2="14" y2="26.2" gradientUnits="userSpaceOnUse"><stop stop-color="#999"/><stop offset="1" stop-color="#B29B9B"/></linearGradient><linearGradient x1="14" y1="1" x2="14" y2="26.2" gradientUnits="userSpaceOnUse"><stop stop-color="#999"/><stop offset="1" stop-color="#B29B9B"/></linearGradient><linearGradient x1="14" y1="1" x2="14" y2="26.2" gradientUnits="userSpaceOnUse"><stop stop-color="#999"/><stop offset="1" stop-color="#B29B9B"/></linearGradient><linearGradient x1="14" y1="1" x2="14" y2="26.2" gradientUnits="userSpaceOnUse"><stop stop-color="#999"/><stop offset="1" stop-color="#B29B9B"/></linearGradient><linearGradient x1="14" y1="1" x2="14" y2="26.2" gradientUnits="userSpaceOnUse"><stop stop-color="#999"/><stop offset="1" stop-color="#B29B9B"/></linearGradient><linearGradient x1="14" y1="1" x2="14" y2="26.2" gradientUnits="userSpaceOnUse"><stop stop-color="#999"/><stop offset="1" stop-color="#B29B9B"/></linearGradient><linearGradient x1="14" y1="1" x2="14" y2="26.2" gradientUnits="userSpaceOnUse"><stop stop-color="#999"/><stop offset="1" stop-color="#B29B9B"/></linearGradient><linearGradient x1="14" y1="1" x2="14" y2="26.2" gradientUnits="userSpaceOnUse"><stop stop-color="#999"/><stop offset="1" stop-color="#B29B9B"/></linearGradient><linearGradient x1="14" y1="1" x2="14" y2="26.2" gradientUnits="userSpaceOnUse"><stop stop-color="#999"/><stop offset="1" stop-color="#B29B9B"/></linearGradient><linearGradient x1="14" y1="1" x2="14" y2="26.2" gradientUnits="userSpaceOnUse"><stop stop-color="#999"/><stop offset="1" stop-color="#B29B9B"/></linearGradient><linearGradient x1="14" y1="1" x2="14" y2="26.2" gradientUnits="userSpaceOnUse"><stop stop-color="#999"/><stop offset="1" stop-color="#B29B9B"/></linearGradient><linearGradient x1="14" y1="1" x2="14" y2="26.2" gradientUnits="userSpaceOnUse"><stop stop-color="#999"/><stop offset="1" stop-color="#B29B9B"/></linearGradient><linearGradient x1="14" y1="1" x2="14" y2="26.2" gradientUnits="userSpaceOnUse"><stop stop-color="#999"/><stop offset="1" stop-color="#B29B9B"/></linearGradient><linearGradient x1="14" y1="1" x2="14" y2="26.2" gradientUnits="userSpaceOnUse"><stop stop-color="#999"/><stop offset="1" stop-color="#B29B9B"/></linearGradient><linearGradient x1="14" y1="1" x2="14" y2="26.2" gradientUnits="userSpaceOnUse"><stop stop-color="#999"/><stop offset="1" stop-color="#B29B9B"/></linearGradient></defs></symbol>
<symbol xmlns="http://www.w3.org/2000/svg" id="categories-decor" viewBox="0 0 90 8"><path d="m0 4 9-3-2.206 2.5h16.777l-1.216 2h13.897l-1.217-2h19.647l-1.216 2h13.877l-1.216-2h17.079L81 1l9 3-9 3 2.206-2.5h-15.3l1.216 2H51.687l1.217-2h-16.09l1.217 2H20.576l1.216-2H6.794L9 7 0 4Z" opacity="0.8"/></symbol><symbol xmlns="http://www.w3.org/2000/svg" id="cashcrab" viewBox="0 0 28 28"><path fill-rule="evenodd" clip-rule="evenodd" d="M27.977 6.377c-.119-.746-.661-1.368-1.096-1.955-.553-.744-1.193-1.122-1.965-1.598l.003-.004c-1.134-.678-4.35-1.42-8.28-1.42-.537 0-3.062.248-3.885.51-.947.301-1.862.688-2.764 1.108-1.836.854-3.476 1.798-4.93 3.224-1.25 1.224-2.555 2.478-3.363 4.056a17.847 17.847 0 0 0-1.105 2.76c-.282.907-.465 1.675-.548 2.777-.052.69-.065 1.084 0 1.774.061.651.177 1.126.303 1.647.127.526.303 1.064.512 1.564.464 1.113 1.244 2.201 2.061 3.083.808.872 1.89 1.41 2.979 1.838.56.22 1.074.404 1.676.47.614.069 1.327.007 1.889.271.562.265 1.62 0 1.62 0 .504-.217 1.088-.167 1.632-.214a10.07 10.07 0 0 0 1.723-.3c.998-.264 2.006-.565 2.96-.962 1.967-.818 3.98-1.995 5.42-3.59 1.26-1.398 3.2-4.014 2.135-5.968-.338-.62-.957-1.768-1.796-1.614-.98.18-1.215 1.497-1.781 2.153-.732-.631-1.174-.934-2.052-.342-.766.516-1.465 1.134-2.19 1.706-.931-.648-1.556.183-2.396.62-1.05.544-1.572-.372-1.562-1.36.02-2.146 2.2-3.77 3.53-5.199.712.362 1.744 1.18 2.546.648.815-.54 1.116-1.735 1.764-2.44.652.366 1.436.962 2.131.386.835-.691 1.267-1.79 2.102-2.48.395.515 1 .958 1.684.75.777-.239 1.165-1.146 1.044-1.9v.001ZM2.073 11.178c.231-.437.487-.848.766-1.21a21.245 21.245 0 0 1 3.54-3.615c1.288-1.027 2.888-1.86 4.384-2.54a18.738 18.738 0 0 1 2.36-.883c.798-.24 1.05-.354 2.827-.644 1.778-.29 5.615.187 7.016.777.246.121 5.002 1.176-.373 1.664-1.097.1-2.024-.205-3.085-.383-1.062-.178-3.934-.932-6.362-.384-1.241.28-2.138.626-3.044 1.16-.867.514-1.796.956-2.64 1.503-.833.54-1.804.976-2.534 1.643-.838.767-1.844 1.511-2.526 2.426-.117.158-.227.32-.33.486h.001ZM15.55 23.725c2.14-.793 4.096-1.864 5.752-3.453 1.468-1.41 3.19-3.543 2.629-5.704l-.212-.648s.097.043.252.164c.097.076.23.216.23.216l.27 1.009c.562 2.16-1.16 4.294-2.628 5.703-1.655 1.588-3.612 2.66-5.752 3.453-2.161.8-4.053 1.404-6.691 1.14-2.874-.286-5.141-.697-6.833-2.828l-.017-.009.006-.006.011.015c.987.461 1.82 1.167 2.859 1.564 1.105.421 2.26.532 3.434.525 2.292-.014 4.53-.34 6.691-1.141ZM27.752 5.7s-.084.636-.32.948c-.602.797-1.63 1.192-2.557-.054-.441.478-.877.957-1.3 1.45-.321.374-.79 1.18-1.22 1.391-.785.384-1.248-.894-2.026-.437-.682.874-.955 2.06-2.071 2.621-.464-.263-.92-.588-1.415-.79-.61-.25-.82.065-1.235.49-.75.768-1.554 1.521-2.2 2.384-.59.787-.848 1.764-.864 2.744a2.81 2.81 0 0 0 .21 1.108c-.126-.158-.231-.34-.304-.463a2.836 2.836 0 0 1-.398-1.484c.017-.98.275-1.957.865-2.744.646-.862 1.45-1.616 2.2-2.385.414-.424.624-.739 1.234-.49.496.204.95.528 1.415.791 1.117-.561 1.39-1.747 2.072-2.621.778-.457 1.24.822 2.025.437.43-.211.9-1.017 1.22-1.39.424-.494.86-.973 1.3-1.45.927 1.246 1.998.88 2.559.053.218-.323.234-.64.258-.964.098.129.15.205.334.473.166.282.19.327.218.382Z"/><defs><linearGradient x1="14" y1="1.4" x2="14" y2="26.6" gradientUnits="userSpaceOnUse"><stop stop-color="#999"/><stop offset="1" stop-color="#B29B9B"/></linearGradient></defs></symbol><symbol xmlns="http://www.w3.org/2000/svg" id="jackpots" viewBox="0 0 28 28"><path d="M15.601 20.9c-.15-.15-.871.916.64 3.094.49.631 1.402 1.447 1.887 2.08.255.333.388.72.33 1.148-.043.332-.374.654-.705.73-.522.119-.993.025-1.375-.356-.553-.551-1.133-1.084-1.622-1.69-.488-.605-1.097-2.051-1.097-2.051s-.532-1.195-.59-2.011c-.094-1.296-.19-2.425-.19-2.425-.97 0-.24 1.54-.665 2.397-.945 1.906-2.798 2.915-4.596 2.658a5.79 5.79 0 0 1-1.321-.337c-.747-.299-1.205-.911-1.533-1.62-.198-.423-.34-.873-.55-1.29a1.167 1.167 0 0 0-.448-.478c-.699-.385-1.393-.782-1.82-1.482-1.062-1.743-1.136-3.96.747-5.511.565-.466 1.084-.692 1.87-.862.898-.195 1.568-.004 2.352.083 1.108.122 2.028.388 3.317.233.947-.113 1.514-.68 1.514-.68s-.822-.295-1.02-.283c-1.324.069-2.636-.062-3.93-.312-.897-.172-1.786-.4-2.653-.687-.988-.328-1.627-1.078-2.03-2.017-.363-.845-.416-1.505-.25-2.409.216-1.173.92-1.935 1.981-2.405.253-.113.52-.205.752-.347.15-.092.33-.243.365-.397C5.306 2.119 6.253 1.153 7.78.76c1.573-.404 2.97-.126 4.083 1.143.8.914 1.01 1.983 1.108 3.186.106 1.283.136 2.363.276 3.85.066.698.654 1.674.654 1.674s.535-.674.535-1.18c0-1.304-.393-2.216-.521-3.332-.159-1.368-.347-2.724.384-3.968.5-.847 1.253-1.373 2.14-1.726A6.57 6.57 0 0 1 17.56.072c1.186-.243 2.193.142 3.014.99.381.392.698.85 1.018 1.298.11.156.22.239.402.269.805.13 1.547.417 2.19.925 1.304 1.023 1.922 2.531 1.384 4.19-.57 1.756-1.742 2.747-3.562 3.21-1.274.324-2.575.538-3.862.81-.324.07-1.216.773-1.216.773s1.057.386 1.416.262c.984-.34 1.953-.584 3.153-.605.965-.017 1.566-.008 2.343.36 1.172.554 1.938 1.486 2.404 2.675a5 5 0 0 1 .31 2.525c-.135 1.005-.712 1.69-1.551 2.171-.418.241-.876.42-1.324.606-.264.108-.437.248-.513.549-.195.769-.473 1.508-.974 2.143a2.891 2.891 0 0 1-1.522 1.008c-.988.28-1.905.468-2.956-.01-1.4-.634-1.962-3.17-2.113-3.321Zm6.577-7.803c-1.478-.277-3.723.646-3.723.646s1.42.165 2.223.56c.414.203.539.576.997.631.433.052.957-.281 1.067-.33.911-.41 1.928 1.342 2.27.977.212-.225 0-.773-.244-1.043-.776-.857-1.84-1.301-2.59-1.441Zm-19.844 4.29s.567-.816 2.041-2.058c.934-.787 2.903-1.583 2.903-1.583s-1.408-.15-1.882-.085c-1.033.143-1.697.652-2.155 1.13-.948.989-.907 2.596-.907 2.596ZM11.52 2.935S8.628.5 6.869 2.258c-.707.631-1.076 1.72-1.076 1.72s.52-.134 1.077-.59c.855-.701 1.39-.755 2.494-.678.895.061 2.155.225 2.155.225ZM2.817 8.687s.654-1.532 1.58-1.892c.95-.37 2.201-.491 3.203 0C8.602 7.285 10 8.4 10 8.4S8.852 6.493 7.8 6c-.544-.255-1.193-.147-1.496-.363-.173-.124-.359-.213-.382-.489-.023-.273-.395-.44-.65-.333-.274.115-.543.235-.812.359-2.126.927-1.643 3.513-1.643 3.513Zm15.392-7.67c-1.02 0-1.7.149-2.495.79-1.247 1.005-1.02 2.37-1.02 2.37s.567-1.19 2.154-1.919c1.475-.677 2.949-.677 2.949-.677s-.93-.565-1.588-.565Zm6.237 5.08c.677.22-.18-1.186-.69-1.68-.646-.629-1.366-.76-2.245-.554-.537.125-2.164.492-3.102 1.443C17.427 6.302 17 8.6 17 8.6s1.116-2.25 2.176-2.903c.743-.459 1.268-.043 1.93-.283.484-.175.862-.264 1.294-.25.66.02.91.326 1.365.82.454.451.352.006.68.113ZM8 19.419c-.004.23.8.281.8.281s1.165-.888 1.5-1.4c.499-.762 1.419-2.894 1.419-2.894-.678.63-2.17 1.918-2.818 2.574-.363.367-.836.872-.9 1.44ZM19.543 17.7s-.018-.495-.675-1.087c-.657-.593-.735-.914-1.48-1.458-.575-.42-1.713-.747-1.787-.703-.03.016.334.56.368.612.38.588-.177 1.497-.013 2.307.156.776.644 1.896.644 1.896s.477-1.69.535-1.938c.135-.578.66-.808 1.165-.505.219.131 1.027.74 1.243.876Zm-2.72 9.16c.252-.215-.49-.972-.786-1.36-.352-.461-1.637-2.3-1.637-2.3s.455 1.73.8 2.2c.299.406 1.374 1.673 1.623 1.46ZM5.509 20.097c.156-.078.355-.102.573-.193.765-.319 1.284-.908 1.695-1.275.19-.17 1.516-1.651 1.516-1.651s-1.324.792-1.403.86c-.344.3-1.336.512-1.674.817-.308.278-.707 1.442-.707 1.442Zm9.185-6.123c.16 0 .269-.283.34-.426.143-.284-1.234-1.148-1.234-1.148s.266 1.195.354 1.348c.079.138.38.226.54.226Z"/><defs><linearGradient x1="13.9" y1="0" x2="13.9" y2="28" gradientUnits="userSpaceOnUse"><stop stop-color="#999"/><stop offset="1" stop-color="#B29B9B"/></linearGradient></defs></symbol><symbol xmlns="http://www.w3.org/2000/svg" id="live-casino" viewBox="0 0 28 28"><g clip-path="url(#clip0_26292_5526)"><path d="M11.214 11.219c.611.61 1.415 1.036 1.415 1.036l.848-.188.944.754-1.32.377-2.264-1.414-.943 2.168.566.66-1.886-.377 1.886-4.336s.143.709.754 1.32Z"/><path fill-rule="evenodd" clip-rule="evenodd" d="M14.704.201c.54.058.996 1 .996 1l2.6 10.4s.962 3.894 1.6 6.2c.167.603.36 1.227.548 1.83.54 1.739 1.023 3.298.652 3.67-.51.509-3.182 1.316-5.122 1.851l-1.88.488-.272.07-.003.002-.037.01-7.003 1.816c-1.154.297-1.226-.566-1.226-.566S.297 5.564.088 4.82C-.12 4.076.043 3.783.56 3.595 1.076 3.406 14.165.143 14.704.2Zm1.32 21.116-.754-.095 1.226-2.734.565.472-1.037 2.357Zm1.876.783-1.31-.878.754-1.697 1.132 1.226-.576 1.35ZM4.237 5.197l-.849 1.697.189.754-.754-.66 1.131-2.357 1.32.849.189.471-1.226-.754Zm1.132 1.32-.566 1.32L3.766 6.8l.565-1.037 1.038.754Zm2.376 5.23a28.474 28.474 0 0 0-1.057 2.865l.849-.377L9.8 9.333l-.283-1.225s-1.013 1.895-1.772 3.64ZM12 19l1 .8 1.2-3.4 1.352-4.145h-.943s.092-.673-.283-.942c-.375-.27-4.337-3.582-4.337-3.582s-.197.622.188.942c.385.32 1.697 1.603 1.697 1.603s-1.225-1.044-1.603-.943c-.377.101-2.357 5.09-2.357 5.09l1.415 1.603L7.537 14.8l-.66.66L12 19Z"/><path fill-rule="evenodd" clip-rule="evenodd" d="M18.716 25.392c2.532.266 5.287.54 5.89.544 1.168.005 1.414-1.509 1.414-1.509S27.982 4.555 28 3.595c.018-.961-1.32-1.226-1.32-1.226l-9.601-1.022c.377 1.257.951 3.215 1.321 4.678.196.776.655 3.055.655 3.055l2.215 9.457c.193.73.424 1.446.638 2.107.506 1.57.914 2.834.492 3.256-.354.354-1.06.578-1.881.839-.571.181-1.198.38-1.803.653ZM21 6.8h1.6l.2.7.7-.1.3-3.8 2.4.4-.8 2.4-.1-2.2-.5.4c-.015.67-.136 2.177-.277 2.84-.176.83-.773.96-1.453.96-.77 0-1.101-.523-1.19-.785L21.4 7.2l-.2.8-.2-1.2Zm3.427 8.106-.283-.848s1.295-.316 1.32-1.037c.026-.721-1.225-1.508-1.225-1.508v-.377l-.566-.283.094.66-1.226 1.414-.094-.66.754-1.414s-1.17 1.167-1.226 1.32c-.055.152-.094.754-.094.754l-.188.471s.546.47.943.471c.397.002.565 0 .565 0l-.754.755s.37.413.754.377c.384-.037 1.226-.095 1.226-.095Z"/></g><defs><linearGradient x1="14" y1="0.2" x2="14" y2="27.6" gradientUnits="userSpaceOnUse"><stop stop-color="#999"/><stop offset="1" stop-color="#B29B9B"/></linearGradient><linearGradient x1="14" y1="0.2" x2="14" y2="27.6" gradientUnits="userSpaceOnUse"><stop stop-color="#999"/><stop offset="1" stop-color="#B29B9B"/></linearGradient><linearGradient x1="14" y1="0.2" x2="14" y2="27.6" gradientUnits="userSpaceOnUse"><stop stop-color="#999"/><stop offset="1" stop-color="#B29B9B"/></linearGradient><clipPath><path d="M0 0h28v28H0z"/></clipPath></defs></symbol><symbol xmlns="http://www.w3.org/2000/svg" id="promotions" viewBox="0 0 28 28"><path fill-rule="evenodd" clip-rule="evenodd" d="M19.113 5.52c.495.496.48.701.786.394.307-.308-.09-2.76-.393-2.76-.303 0-1.967 1.38-1.967 1.38s1.078.489 1.574.986Zm-8.458.394c.436.438 2.753 1.577 2.753 1.577l.197-.394-2.557-2.76-1.377-.986-.59 1.183v.986s1.137-.044 1.574.394Zm1.573 2.898L12 8.437h-1.7l.355-.552s-1.316-.067-1.377 0c-.118.13-1.967.986-1.967.986l-.197.394 4.327.197h3.541l5.114-.197-1.18-.788-1.77-.04-.598.434-1.173-.194-.786.391-.984-.394-1.377.138Zm-1.18-6.446 2.164 2.562s.787 2.046.787 1.577c0-.469-.197-1.506-.197-2.365 0-.86.197-1.972.197-1.972l-.984-.985s-1.027-.351-1.377 0c-.35.35-1.18.985-1.18.985v.986l.59.591v-1.38Zm4.13 1.577v1.774s.787-.895.787-1.972c0-2.294-1.18-1.774-1.18-1.774l-.59 1.577s.984-.153.984.395Zm.787 3.154c0 .489 1.189.394 2.164.394.976 0 .724-2.168-.393-2.168s-1.77.59-1.77.59h1.376s-1.376.695-1.376 1.184Zm-.786-1.183s-2.294 1.971-.787 1.971c1.507 0 .787-1.971.787-1.971Zm.983-4.14c.582.584-.275 3.627.394 2.957.668-.67.94-.745 1.376-1.183.437-.437.846-1.32.59-1.577C18.268 1.715 15.994 0 15.376 0c-.617 0-.393 1.183-.393 1.183s.598.004 1.18.591Zm6.294 13.01v11.434s.878-.286 1.377-.591c.513-.313 1.18-.986 1.18-.986V13.996s-.716.25-1.18.394c-.534.167-1.377.395-1.377.395Zm.59 10.251s-.212-1.947-.196-2.168c.015-.22.393 1.183.393 1.183h.984l-1.18.985Zm1.18-7.49-1.376.394v-1.183l1.377-.394-1.18.591v.394l1.18.198ZM22.85 15.77v-.591l1.573-.591-1.573 1.182Zm2.753-8.476c0-.394-.8-.66-1.376-.986-.72-.407-1.162-.596-1.967-.788-.603-.144-1.574-.197-1.574-.197v.59l.393.592-.786.395.59.4-.984.19 1.377.987.787.591s1.253-.227 1.967-.591c.685-.35 1.573-.789 1.573-1.183Zm-.786 1.183c-.434.279-.7.402-1.18.591-.52.205-1.377.394-1.377.394l.196.789v3.942s1.253-.226 1.967-.591c.59-.301 1.377-.986 1.377-.986V7.688s-.57.522-.983.789Zm.59 3.745-2.557 1.38V9.857l.393 1.385 2.164-.4-2.164.789v1.188l2.164-.597Zm-20.26 2.563.197-.395-2.557-1.182.197 11.63s.611.863 1.18 1.183c.487.274 1.377.394 1.377.394v-6.702l-.197-3.548-.197-1.38Zm-.983.591.787-.197v2.168l-.787-.394.787-.986-.787-.59Zm.983 9.66-.393-5.323s.22-.603.393-.394c.173.209 0 5.716 0 5.716ZM20.293 9.461l-5.114.395h-2.95l-5.311-.198-.197 1.774v2.76l.397.02v-.02l.134.024s2.194.103 3.6.173c1.46.074 2.275.184 3.737.198 1.768.016 4.524-.197 4.524-.197l1.966-.198.197-2.76-.393-1.576-.59-.395ZM8.294 11.236l-.983 1.183.197-2.168h1.967l-1.97.791.79.194Zm12.392 2.957-.393-1.38h-.984l.984-.59v-.79h-1.377l1.377-.59.393-.592v3.942ZM3.18 8.673C2.614 8.35 2 7.492 2 7.492s-.009.841 0 1.38c.023 1.31.197 3.351.197 3.351s.922.667 1.573.986c.59.288 1.574.591 1.574.591v-3.154l.197-1.183-1.18-.394c-.461-.154-.759-.153-1.18-.394Zm1.574 4.14-1.574-.985-.393-.592 1.967.986v.591Zm-.59-5.322 2.266.946.88-.552L9.276 6.9l-1-.195.625-.429-.809-.368.191-.591.21-.586s-1.704.12-2.755.394c-1.035.271-1.661.4-2.557.986-.412.27-.983.394-.983.789 0 .394.5.824.983 1.182.47.349.814.434 1.377.592.45.125 1.18.197 1.18.197l.095-.06-1.668-.926v-.394Zm16.188 7.31-.256.772-.326-.658-1.33.331-.114.915-.342-.8-.052.011-.527-.04-.26.434-.153-.46-.444-.032-.386 1.281-.295-1.333-.287-.02-.598 1.353-.275-1.38h-.295l-.414 1.38-.306-1.38h-.48l-.394.394-.184-.465-.437-.055-.358.718-.158-.785-1.612-.201h-.04l-.157.788-.523-.788H7.932l-.42.986-.244-.986h-.543l.203 4.337v2.168c.138-.016 2.354.197 2.354.197l-2.354.395v.985l-.197 3.746s2.905.591 6.681.591c3.777 0 7.668-.788 7.668-.788v-5.126l.004-6.308-.728-.181-.004.003Zm-9.697 9.84c-.138.063-2.557-.591-2.557-.591l5.507.197s-2.813.331-2.95.394Zm9.631-4.337-.98-.394.98-.197V18.53l-.783-.591h.786l.197-1.774.197 7.49-.397-3.35Z"/><defs><linearGradient x1="13.898" y1="0" x2="13.898" y2="27.2" gradientUnits="userSpaceOnUse"><stop stop-color="#999"/><stop offset="1" stop-color="#B29B9B"/></linearGradient></defs></symbol><symbol xmlns="http://www.w3.org/2000/svg" id="sports-football" viewBox="0 0 24 24"><path d="M12 1C5.937 1 1 5.937 1 12s4.937 11 11 11 11-4.937 11-11S18.063 1 12 1ZM2.073 12a9.4 9.4 0 0 1 .242-2.146l2.71-1.556 3.219 1.85v3.703l-3.22 1.851-2.71-1.556A9.399 9.399 0 0 1 2.075 12Zm6.44-2.334-3.22-1.851v-3.14A9.777 9.777 0 0 1 9.022 2.53l2.71 1.583v3.73l-3.22 1.824Zm6.975 4.668 3.22 1.851v3.14a9.776 9.776 0 0 1-3.73 2.146l-2.71-1.583v-3.73l3.22-1.824Zm3.22-9.658v3.139l-3.22 1.85-3.22-1.85v-3.73l2.71-1.556c1.395.456 2.683 1.18 3.73 2.147ZM5.292 19.324v-3.139l3.22-1.85 3.219 1.85v3.73l-2.71 1.556c-1.395-.456-2.683-1.18-3.73-2.147Zm13.683-3.622-3.22-1.85v-3.703l3.22-1.851 2.71 1.556a9.66 9.66 0 0 1 0 4.292l-2.71 1.556Z"/></symbol><symbol xmlns="http://www.w3.org/2000/svg" id="sports-live-sports" viewBox="0 0 28 28"><path d="M0 11.458c.088-1.906.454-3.73 1.355-5.41.075-.14.245-.23.416-.32.078-.04.156-.081.225-.127 0 .083.01.17.02.258.02.186.04.372-.028.515C.35 9.78.353 13.187 1.912 16.617c.061.135.04.307.018.48-.01.081-.02.163-.021.24a2.37 2.37 0 0 0-.213-.12c-.16-.084-.32-.168-.391-.3C.37 15.214.058 13.357 0 11.457Zm26.882 5.13c.732-1.639 1.143-3.348 1.114-5.152h.002c.035-1.91-.39-3.718-1.265-5.412-.066-.127-.227-.204-.389-.281-.074-.036-.149-.071-.214-.111a4.372 4.372 0 0 1-.025.198c-.022.155-.045.31-.027.46.014.11.072.214.13.318.031.055.062.11.087.165.948 2.148 1.243 4.393.771 6.681-.146.712-.405 1.401-.663 2.09-.15.4-.301.8-.43 1.206-.04.128 0 .282.04.437.02.072.038.144.049.214.056-.028.116-.053.176-.078.133-.055.266-.11.361-.204.107-.104.169-.256.23-.405l.053-.126Zm-12.916-6.85c-1.001.014-1.715.741-1.705 1.736.011.974.772 1.74 1.733 1.74.937 0 1.756-.799 1.764-1.726.008-.98-.795-1.764-1.792-1.75Z"/><path d="M25.072 15.884c.737-1.388.996-2.903 1.06-4.432-.046-1.59-.335-3.098-1.058-4.492-.08-.153-.258-.255-.437-.357a2.706 2.706 0 0 1-.239-.148c0 .084-.006.171-.014.259-.016.191-.032.383.038.534.638 1.379 1.095 2.83.929 4.328-.1.905-.345 1.793-.59 2.681-.124.448-.247.896-.352 1.347a3.47 3.47 0 0 0-.067.652c-.004.098-.008.197-.016.294.08-.069.169-.133.258-.197.194-.14.388-.28.488-.47ZM3.775 6.385c0 .074.006.149.012.224.012.165.024.33-.023.474-.108.335-.234.666-.36.996-.207.544-.415 1.088-.54 1.651-.463 2.069-.14 4.067.744 5.99.071.154.062.347.053.539-.004.09-.009.178-.005.264-.074-.053-.16-.1-.246-.148-.185-.102-.37-.204-.442-.359-1.405-3.029-1.39-6.064.06-9.077.074-.155.19-.29.305-.426.053-.063.107-.126.156-.19l.141.03.142.032h.003Z"/><path d="M23.514 14.1a.934.934 0 0 0-.458-.251c.635-1.924.53-3.85-.372-5.798-.066-.142-.032-.331.001-.52.016-.088.031-.175.037-.257.068.051.148.099.228.146.175.103.35.206.396.35.283.88.53 1.77.778 2.662.086.312.172.623.26.934a21.709 21.709 0 0 1-.22.06 7.095 7.095 0 0 1-.484 2.913.88.88 0 0 0-.166-.24Zm-1.796-.299h-.677c.717-1.632.687-3.269-.082-4.941-.063-.14-.04-.319-.016-.498.01-.083.021-.165.024-.244.07.048.153.091.236.134.18.094.362.188.41.328.236.675.43 1.364.639 2.108.076.271.154.55.237.837l-.244.727c-.171.513-.344 1.032-.527 1.55ZM4.807 7.679c-1.128 2.193-1.252 4.412-.463 6.639a.902.902 0 0 1 .163-.22.957.957 0 0 1 .418-.237c-.407-1.233-.491-2.504-.17-3.811.106-.429.264-.843.422-1.258.112-.293.223-.586.317-.884.047-.15.034-.32.022-.491-.006-.078-.012-.156-.012-.233l-.139-.031-.14-.031c-.043.057-.09.112-.137.168a2.161 2.161 0 0 0-.28.389Zm.994 4.651c.148.503.291.992.445 1.473h.69c-.692-1.71-.605-3.39.288-5.068.062-.114.038-.274.013-.433-.01-.073-.022-.146-.025-.214-.069.035-.15.065-.233.095-.177.065-.354.13-.397.246-.28.76-.523 1.534-.77 2.326l-.245.777h-.002c.081.27.16.536.236.798Zm2.622 1.472h.388l.003-.02c.026-.175.052-.35-.008-.489-.556-1.289-.546-2.53.146-3.773.061-.109.032-.268.003-.428a2.013 2.013 0 0 1-.032-.22c-.058.03-.127.055-.195.08-.148.055-.295.11-.338.209-.24.567-.447 1.147-.652 1.718l-.2.553v-.002.003-.001c.065.224.123.44.18.648.142.524.273 1.005.45 1.467.04.103.14.182.255.255Zm10.617-.001h.644c.235-.55.434-1.114.639-1.697.072-.206.145-.413.22-.622l-.197-.605c-.195-.595-.378-1.16-.59-1.714-.03-.079-.165-.117-.301-.155-.063-.018-.125-.035-.178-.057-.015.06-.04.123-.064.187-.053.138-.107.277-.062.367.66 1.344.677 2.651-.087 3.965-.05.086-.041.206-.023.331Zm-.626-1.871c.064-.146.129-.29.195-.434-.06-.161-.115-.316-.168-.466a8.305 8.305 0 0 0-.404-1.01c-.045-.086-.196-.119-.347-.152a1.793 1.793 0 0 1-.201-.051c-.008.056-.024.117-.04.179-.035.132-.07.264-.021.35.455.821.385 1.579-.143 2.338-.058.083-.04.218-.023.353.008.063.016.126.017.185.061-.012.134-.018.207-.024.159-.012.319-.024.363-.103.213-.374.39-.77.565-1.166Zm-8.774-.81c.144-.388.288-.773.477-1.134.053-.102.22-.144.39-.187.077-.02.155-.039.222-.064-.002.069.005.144.013.218.015.16.031.319-.04.418-.512.726-.514 1.437-.109 2.205.053.102.024.248-.006.393a1.85 1.85 0 0 0-.032.193 1.99 1.99 0 0 0-.215-.069c-.164-.046-.327-.091-.383-.195-.15-.277-.248-.582-.354-.909-.043-.133-.087-.27-.136-.41h-.002c.06-.152.117-.306.174-.458Z"/><path fill-rule="evenodd" clip-rule="evenodd" d="M13.992 22.4H5.478c-.589 0-.678-.09-.678-.68 0-2.22 0-4.441.002-6.662.001-.545.114-.655.663-.655l17.028-.002c.635 0 .707.074.707.723 0 2.204-.002 4.407-.003 6.611v.012c0 .578-.073.65-.651.65h-8.554v.003ZM8.4 16.201H7.2v4.4h2.6v-1.2H8.4v-3.2Zm2.8 0v4.4h1.2v-4.4h-1.2Zm9.7 0h-2.8v4.4h2.8v-1.2h-1.6v-.4h1.1v-1.2h-1.1v-.4h1.6v-1.2Zm-7.5 0v.2l.03.186 1.3 4 1.145-.014 1.2-4 .025-.172v-.2h-1.2v.112l-.623 2.076-.677-2.083v-.105h-1.2Z"/><defs><linearGradient x1="14" y1="5.601" x2="14" y2="22.4" gradientUnits="userSpaceOnUse"><stop stop-color="#999"/><stop offset="1" stop-color="#B29B9B"/></linearGradient><linearGradient x1="14" y1="5.601" x2="14" y2="22.4" gradientUnits="userSpaceOnUse"><stop stop-color="#999"/><stop offset="1" stop-color="#B29B9B"/></linearGradient><linearGradient x1="14" y1="5.601" x2="14" y2="22.4" gradientUnits="userSpaceOnUse"><stop stop-color="#999"/><stop offset="1" stop-color="#B29B9B"/></linearGradient><linearGradient x1="14" y1="5.601" x2="14" y2="22.4" gradientUnits="userSpaceOnUse"><stop stop-color="#999"/><stop offset="1" stop-color="#B29B9B"/></linearGradient><linearGradient x1="14" y1="5.601" x2="14" y2="22.4" gradientUnits="userSpaceOnUse"><stop stop-color="#999"/><stop offset="1" stop-color="#B29B9B"/></linearGradient><linearGradient x1="14" y1="5.601" x2="14" y2="22.4" gradientUnits="userSpaceOnUse"><stop stop-color="#999"/><stop offset="1" stop-color="#B29B9B"/></linearGradient><linearGradient x1="14" y1="5.601" x2="14" y2="22.4" gradientUnits="userSpaceOnUse"><stop stop-color="#999"/><stop offset="1" stop-color="#B29B9B"/></linearGradient><linearGradient x1="14" y1="5.601" x2="14" y2="22.4" gradientUnits="userSpaceOnUse"><stop stop-color="#999"/><stop offset="1" stop-color="#B29B9B"/></linearGradient><linearGradient x1="14" y1="5.601" x2="14" y2="22.4" gradientUnits="userSpaceOnUse"><stop stop-color="#999"/><stop offset="1" stop-color="#B29B9B"/></linearGradient><linearGradient x1="14" y1="5.601" x2="14" y2="22.4" gradientUnits="userSpaceOnUse"><stop stop-color="#999"/><stop offset="1" stop-color="#B29B9B"/></linearGradient><linearGradient x1="14" y1="5.601" x2="14" y2="22.4" gradientUnits="userSpaceOnUse"><stop stop-color="#999"/><stop offset="1" stop-color="#B29B9B"/></linearGradient><linearGradient x1="14" y1="5.601" x2="14" y2="22.4" gradientUnits="userSpaceOnUse"><stop stop-color="#999"/><stop offset="1" stop-color="#B29B9B"/></linearGradient><linearGradient x1="14" y1="5.601" x2="14" y2="22.4" gradientUnits="userSpaceOnUse"><stop stop-color="#999"/><stop offset="1" stop-color="#B29B9B"/></linearGradient><linearGradient x1="14" y1="5.601" x2="14" y2="22.4" gradientUnits="userSpaceOnUse"><stop stop-color="#999"/><stop offset="1" stop-color="#B29B9B"/></linearGradient></defs></symbol><symbol xmlns="http://www.w3.org/2000/svg" id="tournament" viewBox="0 0 28 28"><path fill-rule="evenodd" clip-rule="evenodd" d="m19.875 7.893.129.906 1.678-1.876 1.743-1.618s-1.157.459-1.808.906c-.779.536-1.742 1.682-1.742 1.682Zm-1.098-3.3.194 2.589.194-1.553.645-2.2.258.194.323-.84-.13 1.422.517-.647s.472-1.035.581-1.1c.11-.064.515-.628.968-.84.485-.228 1.356-.195 1.356-.195s1.07.042 1.42.518c.374.509.157 1.006 0 1.617-.213.828-1.226 1.812-1.226 1.812l1.678-1.682.84-2.2S24.801.276 23.682.453c-.602.095-1.42.647-1.42.647s-.823.287-1.291.582c-.574.362-1.291 1.165-1.291 1.165l-.904 1.747ZM4.124 5.37 2.898 3.558s-.374-1.108 0-1.617c.35-.476 1.42-.518 1.42-.518s.871-.033 1.355.194c.454.213.86.777.969.842.109.064.58 1.1.58 1.1l.517.646-.13-1.423.324.841.258-.194.645 2.2.194 1.553.194-2.588-.904-1.747-1.291-1.165L5.738 1.1S4.92.548 4.318.453C3.198.276 1.607 1.488 1.607 1.488l.839 2.2L4.124 5.37Zm9.812 13.263 2.582-.258-.71-.712-.387-1.1s-.273.788-.259.647a91.16 91.16 0 0 0 .065-1.488l1.033-1.035-1.098-.324-1.033.13-.645-.324-1.033.065-.774.517 1.226 1.165-1.356 2.2 2.389.517ZM25.36 4.723l-1.807 1.294-1.936 1.23-1.292 2.005H18.97l.064.712-.387.453-2.13.129-2.152.465-4.949-.53-.387-.97-1.383-.302-1.264-1.963-1.936-1.229-1.808-1.294-1.226-2.717s-.157 2.195.645 3.17c.548.665 1.164.676 1.872 1.165 1.035.713 1.827.955 2.518 2.005.558.847.839 2.459.839 2.459l.489.044.027.473.646.13.58 1.164 1.098.647s.007-.806 0-.84c-.007-.035.84 1.487.84 1.487l-.065-1.1s.909 1.177.904 1.165c-.005-.012-.323-1.23-.323-1.23l1.033.971-.13-1.1 1.356 1.165.517-.841.064.906.646-.712.774-.259-.58 1.165s1.391-1.288 1.59-1.519c.013-.027.023-.04.023-.034a.113.113 0 0 1-.024.034c-.11.208-.557 1.26-.557 1.26l.775-.647.193.065-.258.776 1.55-1.488-.452 1.1 1.355-1.294.581-1.035.083-.39.692-.063s.281-1.612.839-2.459c.691-1.05 2.517-2.005 2.517-2.005s1.325-.5 1.872-1.165c.803-.975.646-3.17.646-3.17L25.36 4.723Zm-7.1 21.142-.258-1.682-.065-3.609.194-.84h-1.033l.194-.777-2.776.259-3.615-.26v.842h-.84l.13 2.523-.452 3.414 8.52.13Zm-5.1-4.967 1.162-.13 2.195 1.36-.452.258s-1.78-1.199-1.936-1.294c-.156-.095-.065.453-.065.453s-.876.02-1.097 0c-.222-.02-.969.841-.969.841l-.322-.323 1.484-1.165Zm-1.226 2.12 1.807 1.294 1.42-.13 1.291-1.293.517.259-1.356 1.746-1.936.195-2.26-1.424.517-.647Zm-2.582 3.3.064 1.617L18.97 28l-.323-1.617-9.295-.065ZM8.965 1.1h-.71l-.387.388.465.815-.271-.815.903.906-.568.063c.02.092.063.252.117.26.04.007.148.062.24.112l-.176-.176 5.035-.518 5.552.194H13.87l-5.087.516.117.066s.645.826.645 1.812c0 .986-.193 2.773-.193 4.011 0 1.239.258.924.258 1.36 0 .133.645.258.645.258h1.55l2.905-.065 3.55-.13.323-.582-.065-1.552-.13-2.588V3.494c0-.454 1.55-1.108 1.55-1.941 0-.834-.129-.388-.129-.388s-.234.905-.516.905c-.282 0 .637-.654.322-.97-.315-.316.443-.065.71-.065.268 0 .13-.323.13-.323l-.84-.453L15.033 0 10.58.065 7.222.647l-.064.518L9.353.647l-.388.453Zm10.006-.065.452.065-.84.906.388-.97Zm-.581.582-1.098.389.71-.518-.064-.453.452.582ZM17.099 1.1l.387.065-.839.84.452-.905Zm-3.68.517.323-.452.646.388.774.064-.71.389-.645-.389-.323.389-.71-.583.645.194Zm-.968.065-.194.388-.451-.711.645.323Zm-1.936.518-.388-.065-.258-.841.646.906Zm-1.098.064-.258-.258-.258-.777.774.906-.258.13ZM4.576 5.305l1.743 1.618 1.678 1.876.13-.906s-.964-1.146-1.744-1.682c-.65-.447-1.807-.906-1.807-.906Z"/><defs><linearGradient x1="14" y1="0" x2="14" y2="28" gradientUnits="userSpaceOnUse"><stop stop-color="#999"/><stop offset="1" stop-color="#B29B9B"/></linearGradient></defs></symbol><symbol xmlns="http://www.w3.org/2000/svg" id="vip" viewBox="0 0 28 28"><path d="M7.941 14.465s5.43 9.56 6.22 10.854c.398-.828 5.452-10.265 5.491-10.366.062-.162.277-.528.277-.528s-.06-.035-.207-.035c-3.033-.008-5.666.193-8.698.17-.727-.005-1.652-.295-2.378-.35-.44-.033-.706.257-.706.257l.001-.002Zm4.457-.803c.345-.03.592-.09.868-.191.503-.188.601-.447.395-.942-.222-.534-.623-.927-1.069-1.274-.43-.335-.934-.226-1.32-.01-.627.353-1.183.832-1.784 1.268.343.616 1.693 1.258 2.91 1.15Zm15.47-3.744c-.227-.262-.417-.553-.64-.82-.48-.577-.906-1.216-1.466-1.704-1.107-.966-2.285-1.854-3.448-2.757-.285-.222-.602-.475-.941-.55-1.767-.388-3.545-.724-5.319-1.077-.703-.14-1.408-.277-2.076-.41-.173.025-.304.04-.434.063-2.31.415-4.619.841-6.933 1.24-.46.08-1.167.57-1.167.57L1.18 8.307C.817 8.883.453 9.457.087 10.03c-.141.222-.105.383.07.569.455.476.887.97 1.335 1.453 2.706 2.92 5.375 6.247 8.121 8.76 1.341 1.446 2.675 2.898 4.019 4.34.171.184.326.262.479.245-.607-.927-6.211-9.313-6.374-9.657-.516-1.089-1.435-1.913-2.449-2.468a30.587 30.587 0 0 1-2.613-1.63c.09.044-.163-.447-.163-.447s1.815 1.025 2.517 1.32c.115.05.324-.018.443-.1.26-.18.428-.186.72.014.396.27.432.482.586.855l.09-.033c-.612-2.197-1.223-3.994-1.816-6.121-.218.132-.52.313-.82.5-.182.111-.153 0-.413-.261-.144-.144-1.139.76-1.819 1.059-.197.087 2.111-2.666 1.9-2.567-.187.088-2.613 2.27-2.72 2.446l4.264-3.834-.122 2.31s-.037.34.239.39c1.635.3 3.265.636 4.901.928 1.167.209 2.336.41 3.515.527.455.044.938-.144 1.403-.246 1.544-.342 3.086-.893 4.627-1.243.07-.016.136-.041.203-.062l-.01-.107c-1.321.068-3.964.402-3.964.402l-.05-.078s.332-.725.75-.91c.876-.387 1.751-.777 2.625-1.17.116-.052.404-.233.404-.233l-.674-.143-3.462-1.278.026-.092c1.836.37 3.673.738 5.364 1.08.685 1.134 1.205 2.176 2.393 2.915l-.07.06c-.188-.086-.463-.135-.463-.135l-1.705 6.084s2.753-2.164 4.827-2.216c.4-.01-4.772 2.915-4.827 2.583-.1-.6.848-5.394.941-6.138.015-.117-.144-.271-.09-.49-2.566.554-7.273 1.792-7.273 1.792l1.856 1.674 1.248 1.303s1.344 1.119 2.086 1.679c.01.007.018.016.026.024.725.634.94.534.327 1.276-.073.09-5.818 9.68-6.327 10.378l.029.046a.8.8 0 0 0 .314-.23c1.61-1.754 3.22-3.507 4.825-5.265 2.038-1.987 3.743-4.487 5.608-6.153.966-1.061 1.935-2.12 2.901-3.181.185-.204.221-.404.022-.634l.002-.001Zm-26.2 1.17c-.244-.178-1-.59-1.164-.733-.012-.01.236-.296.285-.377.2.141.906.654.878 1.11Zm22.602-4.16c1.33 1.5 2.13 2.072 2.763 3.416C25.4 9.9 24.8 8.182 24.27 6.928Zm-9.495 7.05c.96-.01 1.918-.012 2.877-.028.111-.002.253-.039.328-.112.27-.267.375-.412.669-.733-.297-.28-3.97-3.578-3.97-3.578s-.401 1.244-.408 1.846c-.008.772.124 1.545.184 2.32.018.217.117.289.32.286Z"/><defs><linearGradient x1="14" y1="2.6" x2="14" y2="25.4" gradientUnits="userSpaceOnUse"><stop stop-color="#999"/><stop offset="1" stop-color="#B29B9B"/></linearGradient></defs></symbol></svg>